<svg width="24" height="25" viewBox="0 0 24 25" fill="none" xmlns="http://www.w3.org/2000/svg">
<path d="M19 4.1665H5C4.20435 4.1665 3.44129 4.48257 2.87868 5.04518C2.31607 5.60779 2 6.37085 2 7.1665V17.1665C2 17.9622 2.31607 18.7252 2.87868 19.2878C3.44129 19.8504 4.20435 20.1665 5 20.1665H19C19.7956 20.1665 20.5587 19.8504 21.1213 19.2878C21.6839 18.7252 22 17.9622 22 17.1665V7.1665C22 6.37085 21.6839 5.60779 21.1213 5.04518C20.5587 4.48257 19.7956 4.1665 19 4.1665ZM18.33 6.1665L12 10.9165L5.67 6.1665H18.33ZM19 18.1665H5C4.73478 18.1665 4.48043 18.0611 4.29289 17.8736C4.10536 17.6861 4 17.4317 4 17.1665V7.4165L11.4 12.9665C11.5731 13.0963 11.7836 13.1665 12 13.1665C12.2164 13.1665 12.4269 13.0963 12.6 12.9665L20 7.4165V17.1665C20 17.4317 19.8946 17.6861 19.7071 17.8736C19.5196 18.0611 19.2652 18.1665 19 18.1665Z" fill="white"/>
</svg>
