<svg width="24" height="25" viewBox="0 0 24 25" fill="none" xmlns="http://www.w3.org/2000/svg">
<g clip-path="url(#clip0_72_225)">
<path fill-rule="evenodd" clip-rule="evenodd" d="M18 3.1665C18.7956 3.1665 19.5587 3.48257 20.1213 4.04518C20.6839 4.60779 21 5.37085 21 6.1665V18.1665C21 18.9622 20.6839 19.7252 20.1213 20.2878C19.5587 20.8504 18.7956 21.1665 18 21.1665H6C5.20435 21.1665 4.44129 20.8504 3.87868 20.2878C3.31607 19.7252 3 18.9622 3 18.1665V6.1665C3 5.37085 3.31607 4.60779 3.87868 4.04518C4.44129 3.48257 5.20435 3.1665 6 3.1665H18ZM8 10.1665C7.73478 10.1665 7.48043 10.2719 7.29289 10.4594C7.10536 10.6469 7 10.9013 7 11.1665V16.1665C7 16.4317 7.10536 16.6861 7.29289 16.8736C7.48043 17.0611 7.73478 17.1665 8 17.1665C8.26522 17.1665 8.51957 17.0611 8.70711 16.8736C8.89464 16.6861 9 16.4317 9 16.1665V11.1665C9 10.9013 8.89464 10.6469 8.70711 10.4594C8.51957 10.2719 8.26522 10.1665 8 10.1665ZM11 9.1665C10.7348 9.1665 10.4804 9.27186 10.2929 9.4594C10.1054 9.64693 10 9.90129 10 10.1665V16.1665C10 16.4317 10.1054 16.6861 10.2929 16.8736C10.4804 17.0611 10.7348 17.1665 11 17.1665C11.2652 17.1665 11.5196 17.0611 11.7071 16.8736C11.8946 16.6861 12 16.4317 12 16.1665V12.5065C12.305 12.1625 12.82 11.7585 13.393 11.5135C13.726 11.3715 14.227 11.3135 14.575 11.4235C14.6904 11.4528 14.7933 11.5188 14.868 11.6115C14.92 11.6815 15 11.8375 15 12.1665V16.1665C15 16.4317 15.1054 16.6861 15.2929 16.8736C15.4804 17.0611 15.7348 17.1665 16 17.1665C16.2652 17.1665 16.5196 17.0611 16.7071 16.8736C16.8946 16.6861 17 16.4317 17 16.1665V12.1665C17 11.4965 16.83 10.9005 16.476 10.4225C16.1503 9.98906 15.6944 9.67123 15.175 9.5155C14.273 9.2325 13.274 9.3895 12.607 9.6755C12.3933 9.76697 12.1852 9.87116 11.984 9.9875C11.9421 9.75709 11.8206 9.5487 11.6408 9.39867C11.461 9.24863 11.2342 9.16647 11 9.1665ZM8 7.1665C7.73478 7.1665 7.48043 7.27186 7.29289 7.4594C7.10536 7.64693 7 7.90129 7 8.1665C7 8.43172 7.10536 8.68607 7.29289 8.87361C7.48043 9.06115 7.73478 9.1665 8 9.1665C8.26522 9.1665 8.51957 9.06115 8.70711 8.87361C8.89464 8.68607 9 8.43172 9 8.1665C9 7.90129 8.89464 7.64693 8.70711 7.4594C8.51957 7.27186 8.26522 7.1665 8 7.1665Z" fill="white"/>
</g>
<defs>
<clipPath id="clip0_72_225">
<rect width="24" height="24" fill="white" transform="translate(0 0.166504)"/>
</clipPath>
</defs>
</svg>
