<svg width="24" height="25" viewBox="0 0 24 25" fill="none" xmlns="http://www.w3.org/2000/svg">
<g clip-path="url(#clip0_72_229)">
<path fill-rule="evenodd" clip-rule="evenodd" d="M12 4.1665C12.855 4.1665 13.732 4.1885 14.582 4.2245L15.586 4.2725L16.547 4.3295L17.447 4.3905L18.269 4.4545C19.161 4.52278 20.0004 4.90345 20.6395 5.52954C21.2786 6.15564 21.6764 6.98704 21.763 7.8775L21.803 8.3025L21.878 9.2125C21.948 10.1555 22 11.1835 22 12.1665C22 13.1495 21.948 14.1775 21.878 15.1205L21.803 16.0305C21.79 16.1765 21.777 16.3175 21.763 16.4555C21.6764 17.3461 21.2784 18.1777 20.6391 18.8038C19.9999 19.4299 19.1602 19.8105 18.268 19.8785L17.448 19.9415L16.548 20.0035L15.586 20.0605L14.582 20.1085C13.7218 20.1459 12.861 20.1652 12 20.1665C11.139 20.1652 10.2782 20.1459 9.418 20.1085L8.414 20.0605L7.453 20.0035L6.553 19.9415L5.731 19.8785C4.83895 19.8102 3.99955 19.4296 3.36047 18.8035C2.72139 18.1774 2.32357 17.346 2.237 16.4555L2.197 16.0305L2.122 15.1205C2.04554 14.1376 2.00484 13.1523 2 12.1665C2 11.1835 2.052 10.1555 2.122 9.2125L2.197 8.3025C2.21 8.1565 2.223 8.0155 2.237 7.8775C2.32354 6.9872 2.72122 6.15592 3.36009 5.52985C3.99897 4.90378 4.83813 4.52301 5.73 4.4545L6.551 4.3905L7.451 4.3295L8.413 4.2725L9.417 4.2245C10.2775 4.18714 11.1387 4.1678 12 4.1665ZM10 9.7415V14.5915C10 15.0535 10.5 15.3415 10.9 15.1115L15.1 12.6865C15.1914 12.6339 15.2673 12.5581 15.3201 12.4668C15.3729 12.3755 15.4007 12.272 15.4007 12.1665C15.4007 12.0611 15.3729 11.9575 15.3201 11.8662C15.2673 11.7749 15.1914 11.6991 15.1 11.6465L10.9 9.2225C10.8088 9.16983 10.7053 9.1421 10.5999 9.14212C10.4945 9.14214 10.3911 9.16989 10.2998 9.2226C10.2086 9.27531 10.1329 9.3511 10.0802 9.44237C10.0276 9.53363 9.99993 9.63715 10 9.7425V9.7415Z" fill="white"/>
</g>
<defs>
<clipPath id="clip0_72_229">
<rect width="24" height="24" fill="white" transform="translate(0 0.166504)"/>
</clipPath>
</defs>
</svg>
