<svg width="40" height="41" viewBox="0 0 40 41" fill="none" xmlns="http://www.w3.org/2000/svg">
<g clip-path="url(#clip0_72_199)">
<path d="M12.645 4.45001C12.825 4.36668 13.0083 4.28668 13.195 4.21001L13.77 3.98501C16.5083 2.97335 20.1233 2.52168 26.2367 4.05001C28.9683 4.73335 31.02 6.85668 32.35 9.25001C34.02 12.2567 35 16.2967 35 20.6667C35 25.0383 34.02 29.0767 32.35 32.0833C31.0183 34.4767 28.9667 36.6 26.2367 37.2833C20.1233 38.8117 16.5083 38.36 13.77 37.35L13.1967 37.1233C13.012 37.047 12.8287 36.9675 12.6467 36.885C10.3183 35.83 8.41667 33.595 7.11 30.8217C5.78833 28.0167 5 24.515 5 20.6667C5 16.8183 5.78833 13.3167 7.11 10.5117C8.41667 7.73835 10.3167 5.50335 12.645 4.45001ZM25 7.33335C23.5783 7.33335 21.9417 8.39001 20.565 10.87C19.2167 13.2933 18.3333 16.7533 18.3333 20.6667C18.3333 24.58 19.2167 28.04 20.565 30.4633C21.9417 32.9433 23.5783 34 25 34C26.4217 34 28.0583 32.9433 29.435 30.4633C30.7833 28.04 31.6667 24.58 31.6667 20.6667C31.6667 16.7533 30.7833 13.2933 29.435 10.87C28.0583 8.39001 26.4217 7.33335 25 7.33335ZM25 14.8333C26.1767 14.8333 27.0167 15.765 27.5133 16.7583C28.035 17.8017 28.3333 19.185 28.3333 20.6667C28.3333 22.15 28.0333 23.5317 27.5133 24.575C27.0167 25.5683 26.1767 26.5 25 26.5C23.8233 26.5 22.9833 25.5683 22.4867 24.575C21.9667 23.5317 21.6667 22.1483 21.6667 20.6667C21.6667 19.1833 21.9667 17.8017 22.4867 16.7583C22.9833 15.7667 23.8233 14.8333 25 14.8333Z" fill="white"/>
</g>
<defs>
<clipPath id="clip0_72_199">
<rect width="40" height="40" fill="white" transform="translate(0 0.666504)"/>
</clipPath>
</defs>
</svg>
