<svg width="24" height="25" viewBox="0 0 24 25" fill="none" xmlns="http://www.w3.org/2000/svg">
<path d="M21.375 12.6665C21.375 12.9649 21.2565 13.251 21.0455 13.462C20.8345 13.673 20.5484 13.7915 20.25 13.7915H13.125V20.9165C13.125 21.2149 13.0065 21.501 12.7955 21.712C12.5845 21.923 12.2984 22.0415 12 22.0415C11.7016 22.0415 11.4155 21.923 11.2045 21.712C10.9935 21.501 10.875 21.2149 10.875 20.9165V13.7915H3.75C3.45163 13.7915 3.16548 13.673 2.9545 13.462C2.74353 13.251 2.625 12.9649 2.625 12.6665C2.625 12.3681 2.74353 12.082 2.9545 11.871C3.16548 11.66 3.45163 11.5415 3.75 11.5415H10.875V4.4165C10.875 4.11814 10.9935 3.83199 11.2045 3.62101C11.4155 3.41003 11.7016 3.2915 12 3.2915C12.2984 3.2915 12.5845 3.41003 12.7955 3.62101C13.0065 3.83199 13.125 4.11814 13.125 4.4165V11.5415H20.25C20.5484 11.5415 20.8345 11.66 21.0455 11.871C21.2565 12.082 21.375 12.3681 21.375 12.6665Z" fill="#0C0C0C"/>
</svg>
