<svg width="24" height="25" viewBox="0 0 24 25" fill="none" xmlns="http://www.w3.org/2000/svg">
<path d="M13.028 2.16773C13.7577 2.16493 14.4875 2.17227 15.217 2.18973L15.411 2.19673C15.635 2.20473 15.856 2.21473 16.123 2.22673C17.187 2.27673 17.913 2.44473 18.55 2.69173C19.21 2.94573 19.766 3.28973 20.322 3.84573C20.8304 4.34534 21.2238 4.94968 21.475 5.61673C21.722 6.25373 21.89 6.98073 21.94 8.04473C21.952 8.31073 21.962 8.53273 21.97 8.75673L21.976 8.95073C21.9938 9.67993 22.0014 10.4093 21.999 11.1387L22 11.8847V13.1947C22.0025 13.9245 21.9948 14.6542 21.977 15.3837L21.971 15.5777C21.963 15.8017 21.953 16.0227 21.941 16.2897C21.891 17.3537 21.721 18.0797 21.475 18.7167C21.2246 19.3845 20.8311 19.9893 20.322 20.4887C19.822 20.9971 19.2173 21.3905 18.55 21.6417C17.913 21.8887 17.187 22.0567 16.123 22.1067C15.856 22.1187 15.635 22.1287 15.411 22.1367L15.217 22.1427C14.4875 22.1605 13.7577 22.1682 13.028 22.1657L12.282 22.1667H10.973C10.2433 22.1692 9.51352 22.1615 8.784 22.1437L8.59 22.1377C8.35261 22.1291 8.11527 22.1191 7.878 22.1077C6.814 22.0577 6.088 21.8877 5.45 21.6417C4.78268 21.3911 4.17823 20.9976 3.679 20.4887C3.17004 19.989 2.77622 19.3843 2.525 18.7167C2.278 18.0797 2.11 17.3537 2.06 16.2897C2.04886 16.0525 2.03886 15.8151 2.03 15.5777L2.025 15.3837C2.00656 14.6542 1.99823 13.9245 2 13.1947V11.1387C1.99721 10.4093 2.00454 9.67993 2.022 8.95073L2.029 8.75673C2.037 8.53273 2.047 8.31073 2.059 8.04473C2.109 6.97973 2.277 6.25473 2.524 5.61673C2.77537 4.94935 3.16996 4.34518 3.68 3.84673C4.17889 3.33749 4.78296 2.94331 5.45 2.69173C6.088 2.44473 6.813 2.27673 7.878 2.22673L8.59 2.19673L8.784 2.19173C9.51318 2.17331 10.2426 2.16497 10.972 2.16673L13.028 2.16773ZM12 7.16773C11.3375 7.15836 10.6798 7.28076 10.065 7.5278C9.45019 7.77485 8.89064 8.14161 8.41884 8.60679C7.94704 9.07197 7.5724 9.62627 7.31668 10.2375C7.06097 10.8487 6.92929 11.5047 6.92929 12.1672C6.92929 12.8298 7.06097 13.4857 7.31668 14.097C7.5724 14.7082 7.94704 15.2625 8.41884 15.7277C8.89064 16.1929 9.45019 16.5596 10.065 16.8067C10.6798 17.0537 11.3375 17.1761 12 17.1667C13.3261 17.1667 14.5978 16.64 15.5355 15.7023C16.4732 14.7646 17 13.4928 17 12.1667C17 10.8407 16.4732 9.56888 15.5355 8.6312C14.5978 7.69352 13.3261 7.16773 12 7.16773ZM12 9.16773C12.3985 9.16039 12.7945 9.23253 13.1648 9.37994C13.5351 9.52735 13.8723 9.74708 14.1568 10.0263C14.4412 10.3055 14.6672 10.6386 14.8214 11.0061C14.9757 11.3736 15.0552 11.7682 15.0553 12.1667C15.0553 12.5653 14.976 12.9599 14.8218 13.3275C14.6677 13.695 14.4418 14.0282 14.1575 14.3075C13.8731 14.5868 13.536 14.8066 13.1657 14.9541C12.7955 15.1017 12.3995 15.1739 12.001 15.1667C11.2053 15.1667 10.4423 14.8507 9.87968 14.2881C9.31707 13.7254 9.001 12.9624 9.001 12.1667C9.001 11.3711 9.31707 10.608 9.87968 10.0454C10.4423 9.4828 11.2053 9.16673 12.001 9.16673L12 9.16773ZM17.25 5.66773C16.9274 5.68065 16.6223 5.81788 16.3986 6.05071C16.1749 6.28353 16.05 6.59387 16.05 6.91673C16.05 7.2396 16.1749 7.54994 16.3986 7.78276C16.6223 8.01558 16.9274 8.15282 17.25 8.16573C17.5815 8.16573 17.8995 8.03404 18.1339 7.79962C18.3683 7.5652 18.5 7.24725 18.5 6.91573C18.5 6.58421 18.3683 6.26627 18.1339 6.03185C17.8995 5.79743 17.5815 5.66573 17.25 5.66573V5.66773Z" fill="white"/>
</svg>
