<svg width="41" height="41" viewBox="0 0 41 41" fill="none" xmlns="http://www.w3.org/2000/svg">
<g clip-path="url(#clip0_72_11)">
<path d="M13.145 4.28333C13.325 4.19999 13.5083 4.11999 13.695 4.04333L14.27 3.81833C17.0083 2.80666 20.6233 2.35499 26.7367 3.88333C29.4683 4.56666 31.52 6.68999 32.85 9.08333C34.52 12.09 35.5 16.13 35.5 20.5C35.5 24.8717 34.52 28.91 32.85 31.9167C31.5183 34.31 29.4667 36.4333 26.7367 37.1167C20.6233 38.645 17.0083 38.1933 14.27 37.1833L13.6967 36.9567C13.512 36.8803 13.3287 36.8008 13.1467 36.7183C10.8183 35.6633 8.91667 33.4283 7.61 30.655C6.28833 27.85 5.5 24.3483 5.5 20.5C5.5 16.6517 6.28833 13.15 7.61 10.345C8.91667 7.57166 10.8167 5.33666 13.145 4.28333ZM25.5 7.16666C24.0783 7.16666 22.4417 8.22333 21.065 10.7033C19.7167 13.1267 18.8333 16.5867 18.8333 20.5C18.8333 24.4133 19.7167 27.8733 21.065 30.2967C22.4417 32.7767 24.0783 33.8333 25.5 33.8333C26.9217 33.8333 28.5583 32.7767 29.935 30.2967C31.2833 27.8733 32.1667 24.4133 32.1667 20.5C32.1667 16.5867 31.2833 13.1267 29.935 10.7033C28.5583 8.22333 26.9217 7.16666 25.5 7.16666ZM25.5 14.6667C26.6767 14.6667 27.5167 15.5983 28.0133 16.5917C28.535 17.635 28.8333 19.0183 28.8333 20.5C28.8333 21.9833 28.5333 23.365 28.0133 24.4083C27.5167 25.4017 26.6767 26.3333 25.5 26.3333C24.3233 26.3333 23.4833 25.4017 22.9867 24.4083C22.4667 23.365 22.1667 21.9817 22.1667 20.5C22.1667 19.0167 22.4667 17.635 22.9867 16.5917C23.4833 15.6 24.3233 14.6667 25.5 14.6667Z" fill="#0C0C0C"/>
</g>
<defs>
<clipPath id="clip0_72_11">
<rect width="40" height="40" fill="white" transform="translate(0.5 0.5)"/>
</clipPath>
</defs>
</svg>
