<svg width="149" height="48" viewBox="0 0 149 48" fill="none" xmlns="http://www.w3.org/2000/svg">
<g clip-path="url(#clip0_76_47)">
<path d="M78.4028 12.1482C78.4028 13.8419 77.0619 15.2062 75.3974 15.2062C73.733 15.2062 72.3921 13.8419 72.3921 12.1482C72.3921 10.4545 73.6867 9.09011 75.3974 9.09011C77.1082 9.13715 78.4028 10.5015 78.4028 12.1482ZM66.0116 18.3113C66.0116 18.5936 66.0116 19.0641 66.0116 19.0641C66.0116 19.0641 64.5783 17.1822 61.5268 17.1822C56.4871 17.1822 52.5571 21.0871 52.5571 26.4975C52.5571 31.8609 56.4409 35.8128 61.5268 35.8128C64.6246 35.8128 66.0116 33.8839 66.0116 33.8839V34.6837C66.0116 35.0601 66.289 35.3424 66.6589 35.3424H70.404V17.6527C70.404 17.6527 66.9826 17.6527 66.6589 17.6527C66.289 17.6527 66.0116 17.982 66.0116 18.3113ZM66.0116 29.6497C65.3181 30.6847 63.931 31.5786 62.2666 31.5786C59.3075 31.5786 57.0419 29.6967 57.0419 26.4975C57.0419 23.2983 59.3075 21.4164 62.2666 21.4164C63.8848 21.4164 65.3643 22.3574 66.0116 23.3454V29.6497ZM73.1781 17.6527H77.6168V35.3424H73.1781V17.6527ZM139.48 17.1822C136.428 17.1822 134.995 19.0641 134.995 19.0641V9.13715H130.556V35.3424C130.556 35.3424 133.978 35.3424 134.302 35.3424C134.671 35.3424 134.949 35.013 134.949 34.6837V33.8839C134.949 33.8839 136.382 35.8128 139.434 35.8128C144.473 35.8128 148.403 31.8609 148.403 26.4975C148.403 21.1341 144.473 17.1822 139.48 17.1822ZM138.74 31.5315C137.029 31.5315 135.689 30.6377 134.995 29.6026V23.2983C135.689 22.3574 137.168 21.3694 138.74 21.3694C141.699 21.3694 143.965 23.2513 143.965 26.4505C143.965 29.6497 141.699 31.5315 138.74 31.5315ZM128.245 24.8509V35.3894H123.806V25.3684C123.806 22.4515 122.881 21.2753 120.385 21.2753C119.044 21.2753 117.657 21.981 116.778 23.016V35.3424H112.34V17.6527H115.854C116.223 17.6527 116.501 17.982 116.501 18.3113V19.0641C117.795 17.6997 119.506 17.1822 121.217 17.1822C123.159 17.1822 124.777 17.7468 126.072 18.8759C127.644 20.1932 128.245 21.8869 128.245 24.8509ZM101.567 17.1822C98.5152 17.1822 97.0819 19.0641 97.0819 19.0641V9.13715H92.6433V35.3424C92.6433 35.3424 96.0647 35.3424 96.3884 35.3424C96.7583 35.3424 97.0357 35.013 97.0357 34.6837V33.8839C97.0357 33.8839 98.469 35.8128 101.521 35.8128C106.56 35.8128 110.49 31.8609 110.49 26.4975C110.536 21.1341 106.606 17.1822 101.567 17.1822ZM100.827 31.5315C99.1163 31.5315 97.7755 30.6377 97.0819 29.6026V23.2983C97.7755 22.3574 99.255 21.3694 100.827 21.3694C103.786 21.3694 106.052 23.2513 106.052 26.4505C106.052 29.6497 103.786 31.5315 100.827 31.5315ZM88.8058 17.1822C90.1466 17.1822 90.8401 17.4174 90.8401 17.4174V21.6046C90.8401 21.6046 87.1413 20.3344 84.8295 23.016V35.3894H80.3909V17.6527C80.3909 17.6527 83.8123 17.6527 84.136 17.6527C84.5059 17.6527 84.7833 17.982 84.7833 18.3113V19.0641C85.6155 18.0761 87.4187 17.1822 88.8058 17.1822ZM42.7089 33.7428C42.4777 33.1782 42.2466 32.5666 42.0154 32.0491C41.6455 31.2022 41.2756 30.4024 40.952 29.6497L40.9057 29.6026C37.7155 22.5456 34.294 15.3944 30.6877 8.33735L30.549 8.05507C30.1791 7.34937 29.8092 6.59661 29.4393 5.84386C28.977 4.99701 28.5146 4.10312 27.7748 3.25627C26.2953 1.37439 24.1685 0.339355 21.9029 0.339355C19.5911 0.339355 17.5105 1.37439 15.9848 3.16218C15.2912 4.00903 14.7826 4.90292 14.3203 5.74977C13.9504 6.50252 13.5805 7.25527 13.2106 7.96098L13.0719 8.24326C9.51179 15.3003 6.04413 22.4515 2.85387 29.5085L2.80764 29.6026C2.48399 30.3554 2.1141 31.1552 1.74422 32.002C1.51304 32.5195 1.28186 33.0841 1.05069 33.6957C0.449625 35.4365 0.264682 37.0831 0.49586 38.7768C1.00445 42.3053 3.31623 45.2693 6.50648 46.5866C7.70861 47.1041 8.95697 47.3394 10.2516 47.3394C10.6214 47.3394 11.0838 47.2923 11.4537 47.2453C12.9795 47.0571 14.5515 46.5396 16.0772 45.6457C17.9729 44.5636 19.7761 43.011 21.8104 40.7528C23.8448 43.011 25.6942 44.5636 27.5437 45.6457C29.0694 46.5396 30.6414 47.0571 32.1672 47.2453C32.5371 47.2923 32.9995 47.3394 33.3693 47.3394C34.6639 47.3394 35.9585 47.1041 37.1144 46.5866C40.3509 45.2693 42.6164 42.2583 43.125 38.7768C43.4949 37.1301 43.31 35.4835 42.7089 33.7428ZM21.8567 36.1892C19.36 32.99 17.7417 29.979 17.1869 27.4385C16.9557 26.3564 16.9095 25.4154 17.0482 24.5686C17.1407 23.8158 17.4181 23.1572 17.788 22.5926C18.6664 21.3223 20.146 20.5225 21.8567 20.5225C23.5674 20.5225 25.0932 21.2753 25.9254 22.5926C26.2953 23.1572 26.5727 23.8158 26.6652 24.5686C26.8039 25.4154 26.7577 26.4034 26.5265 27.4385C25.9716 29.9319 24.3534 32.943 21.8567 36.1892ZM40.3047 38.4004C39.981 40.8469 38.3628 42.964 36.0972 43.9049C34.9876 44.3754 33.7855 44.5165 32.5833 44.3754C31.4274 44.2342 30.2716 43.8579 29.0694 43.1522C27.405 42.2112 25.7405 40.7528 23.7986 38.5886C26.8501 34.7778 28.6995 31.2963 29.3931 28.1912C29.7167 26.7327 29.763 25.4154 29.6243 24.1922C29.4393 23.016 29.0232 21.934 28.3759 20.993C26.9426 18.8759 24.5383 17.6527 21.8567 17.6527C19.175 17.6527 16.7708 18.9229 15.3375 20.993C14.6902 21.934 14.2741 23.016 14.0891 24.1922C13.9042 25.4154 13.9504 26.7798 14.3203 28.1912C15.0138 31.2963 16.9095 34.8248 19.9148 38.6357C18.0191 40.7998 16.3084 42.2583 14.6439 43.1992C13.4418 43.9049 12.2859 44.2813 11.13 44.4224C9.88168 44.5636 8.67955 44.3754 7.61613 43.952C5.35059 43.011 3.73235 40.8939 3.4087 38.4475C3.26999 37.2713 3.36246 36.0951 3.82482 34.7778C3.96353 34.3073 4.1947 33.8369 4.42588 33.2723C4.74953 32.5195 5.11942 31.7197 5.4893 30.9199L5.53554 30.8258C8.72579 23.8158 12.1472 16.6647 15.7074 9.70172L15.8461 9.41943C16.2159 8.71373 16.5858 7.96098 16.9557 7.25527C17.3256 6.50252 17.7417 5.79681 18.2503 5.1852C19.2213 4.05607 20.5159 3.44446 21.9492 3.44446C23.3825 3.44446 24.6771 4.05607 25.648 5.1852C26.1566 5.79681 26.5727 6.50252 26.9426 7.25527C27.3125 7.96098 27.6824 8.71373 28.0522 9.41943L28.191 9.70172C31.7049 16.7117 35.1263 23.8629 38.3165 30.8729V30.9199C38.6864 31.6727 39.0101 32.5195 39.38 33.2723C39.6111 33.8369 39.8423 34.3073 39.981 34.7778C40.3509 36.001 40.4896 37.1772 40.3047 38.4004Z" fill="#403F3F"/>
</g>
<defs>
<clipPath id="clip0_76_47">
<rect width="148" height="47" fill="white" transform="translate(0.403564 0.339355)"/>
</clipPath>
</defs>
</svg>
