<svg width="271" height="46" viewBox="0 0 271 46" fill="none" xmlns="http://www.w3.org/2000/svg">
<g clip-path="url(#clip0_76_10)">
<path d="M106.382 4.41997C106.382 2.07622 108.276 0.29051 110.503 0.29051C112.731 0.29051 114.625 2.18783 114.625 4.41997C114.625 6.65212 112.731 8.54944 110.503 8.54944C108.164 8.54944 106.382 6.65212 106.382 4.41997Z" fill="#403F3F"/>
<path d="M171.436 31.8754C171.436 29.5317 173.33 27.746 175.558 27.746C177.786 27.746 179.679 29.6433 179.679 31.8754C179.679 34.1076 177.786 36.0049 175.558 36.0049C173.218 36.0049 171.436 34.2192 171.436 31.8754Z" fill="#403F3F"/>
<path d="M38.7655 30.0897C35.2008 30.0897 32.7502 27.2995 32.7502 23.2817C32.7502 19.2638 35.2008 16.4736 38.7655 16.4736C42.3301 16.4736 44.7808 19.2638 44.7808 23.2817C44.7808 27.4111 42.3301 30.0897 38.7655 30.0897ZM38.7655 10.3352C31.302 10.3352 25.8438 15.804 25.8438 23.1701C25.8438 30.5361 31.302 36.0049 38.7655 36.0049C46.3403 36.0049 51.7986 30.5361 51.7986 23.1701C51.7986 15.804 46.2289 10.3352 38.7655 10.3352Z" fill="#403F3F"/>
<path d="M98.3615 23.9512C98.0273 23.3932 97.6932 22.9468 97.359 22.6119L97.1362 22.3887L97.359 22.1655C97.6932 21.8307 98.0273 21.3843 98.3615 20.8262L104.934 11.0048H96.9134L91.9006 18.7057C91.5664 19.1521 91.0095 19.3753 90.2297 19.3753H89.1158V4.7548C89.1158 1.85301 87.3335 1.40658 85.3284 1.40658H81.9866V35.8932H89.1158V25.5137H89.7842C90.5639 25.5137 91.1209 25.6253 91.4551 26.0718L95.3539 33.5494C96.4678 35.5584 97.5818 35.8932 99.5869 35.8932H105.045L100.924 29.1968L98.3615 23.9512Z" fill="#403F3F"/>
<path d="M133.005 10.3352C129.329 10.3352 127.101 11.8977 125.764 13.3485L125.319 13.795L125.207 13.2369C124.873 11.786 123.537 11.0048 121.643 11.0048H118.412V35.8932H125.542V24.286C125.542 23.17 125.653 22.1655 125.987 21.2727C126.767 18.5941 128.995 16.92 131.668 16.92C133.896 16.92 134.787 18.036 134.787 21.161V31.9869C134.787 34.5539 136.013 35.7816 138.575 35.7816H141.917V19.9334C141.805 13.6834 138.798 10.3352 133.005 10.3352Z" fill="#403F3F"/>
<path d="M110.615 10.8932H107.273V30.0897V35.7816H110.838H110.949H112.62H114.291V14.6879C114.291 12.1209 113.065 10.8932 110.615 10.8932Z" fill="#403F3F"/>
<path d="M66.5026 30.0897C62.938 30.0897 60.4873 27.2995 60.4873 23.2816C60.4873 19.2638 62.938 16.4736 66.5026 16.4736C70.0673 16.4736 72.518 19.2638 72.518 23.2816C72.6294 27.4111 70.1787 30.0897 66.5026 30.0897ZM66.5026 10.3352C59.0392 10.3352 53.5809 15.804 53.5809 23.17C53.5809 30.5361 59.0392 36.1165 66.5026 36.1165C74.0775 36.1165 79.5358 30.6477 79.5358 23.2816C79.5358 15.9156 74.0775 10.3352 66.5026 10.3352Z" fill="#403F3F"/>
<path d="M218.333 30.0896C214.768 30.0896 212.318 27.2994 212.318 23.2815C212.318 19.2637 214.768 16.4735 218.333 16.4735C221.898 16.4735 224.348 19.2637 224.348 23.2815C224.348 27.411 221.898 30.0896 218.333 30.0896ZM218.333 10.3351C210.87 10.3351 205.411 15.8039 205.411 23.1699C205.411 30.536 210.87 36.0048 218.333 36.0048C225.797 36.1164 231.366 30.7592 231.366 23.2815C231.366 15.8039 225.797 10.3351 218.333 10.3351Z" fill="#403F3F"/>
<path d="M156.732 29.0852C152.833 29.0852 151.496 25.7369 151.496 22.5003C151.496 21.0494 151.831 16.5852 156.398 16.5852C158.626 16.5852 161.633 17.2548 161.633 22.7235C161.633 27.9691 158.96 29.0852 156.732 29.0852ZM165.309 10.7816C163.973 10.7816 162.97 11.3396 162.413 12.3441L162.19 12.6789L161.856 12.3441C160.742 11.3396 158.626 10.2235 155.284 10.2235C148.712 10.2235 144.256 15.2459 144.256 22.6119C144.256 29.978 148.823 35.2235 155.507 35.2235C157.735 35.2235 159.517 34.6655 160.965 33.661L161.522 33.2146V33.8843C161.522 37.2325 159.406 39.0182 155.507 39.0182C153.613 39.0182 151.942 38.5718 150.717 38.1253C149.269 37.6789 148.377 38.0137 147.709 39.5762L147.152 40.9155L146.372 42.9244L146.818 43.1477C149.269 44.4869 152.499 45.2682 155.507 45.2682C161.522 45.2682 168.54 42.1432 168.54 33.4378V10.5584L165.309 10.7816Z" fill="#403F3F"/>
<path d="M12.365 29.8664H6.57253V22.9467C6.57253 21.4958 7.12948 20.7146 8.35481 20.4914H12.2536C15.0385 20.4914 16.8208 22.2771 16.8208 25.1789C16.9322 28.0806 15.2613 29.8664 12.365 29.8664ZM6.57253 11.228V9.44225C6.57253 7.87975 7.24086 7.0985 8.68898 6.98689H11.5853C14.1473 6.98689 15.5954 8.54939 15.5954 11.0047C15.5954 12.9021 14.5929 15.2458 11.6966 15.2458H6.4611L6.57253 11.228ZM19.717 18.1476L18.7145 17.5896L19.6057 16.8083C20.6082 15.9155 22.3905 13.7949 22.3905 10.3351C22.3905 4.86635 18.1575 1.40653 11.6966 1.40653H4.34465H3.45351C1.5598 1.51814 0.000244141 3.08064 0.000244141 4.97796V35.6699H3.45351H11.9194C19.1601 35.6699 23.8386 31.7637 23.8386 25.6253C23.7273 22.3887 22.2791 19.4869 19.717 18.1476Z" fill="#403F3F"/>
<path d="M262.891 10.4468C259.995 10.4468 257.098 11.7861 255.316 14.1298L254.759 14.7995L254.313 14.0182C252.977 11.6745 250.749 10.4468 247.63 10.4468C244.288 10.4468 242.171 12.2325 241.058 13.3486L240.389 14.1298L240.166 13.1254C239.832 11.7861 238.607 11.0048 236.713 11.0048H233.705V35.7816H240.501V24.8441C240.501 23.8397 240.612 22.9468 240.835 21.9423C241.503 19.2638 243.285 16.4736 246.182 16.6968C248.075 16.92 248.966 18.2593 248.966 21.0495V35.7816H255.762V24.8441C255.762 23.6164 255.873 22.7236 256.096 21.8307C256.653 19.2638 258.546 16.6968 261.331 16.6968C263.448 16.6968 264.227 17.9245 264.227 21.0495V32.0986C264.227 34.5539 265.341 35.67 267.792 35.67H271.023V19.8218C271.134 13.5718 268.46 10.4468 262.891 10.4468Z" fill="#403F3F"/>
<path d="M201.401 27.1878C201.401 27.1878 198.505 30.3128 194.606 30.3128C191.153 30.3128 187.588 28.1923 187.588 23.3932C187.588 19.2637 190.373 16.3619 194.272 16.3619C195.497 16.3619 196.945 16.8084 197.168 17.5896V17.7012C197.725 19.4869 199.285 19.4869 199.619 19.4869H203.295V16.2503C203.295 12.0092 197.836 10.4467 194.16 10.4467C186.363 10.4467 180.682 15.9155 180.682 23.3932C180.682 30.8708 186.251 36.3396 194.049 36.3396C200.733 36.3396 204.409 31.8753 204.409 31.8753L204.632 31.6521L201.735 26.7414L201.401 27.1878Z" fill="#403F3F"/>
</g>
<defs>
<clipPath id="clip0_76_10">
<rect width="271" height="45" fill="white" transform="translate(0 0.339355)"/>
</clipPath>
</defs>
</svg>
