<svg width="136" height="49" viewBox="0 0 136 49" fill="none" xmlns="http://www.w3.org/2000/svg">
<g clip-path="url(#clip0_76_51)">
<path d="M92.1398 35.5362H92.1075C86.3587 39.5655 79.5764 43.7867 72.2451 48.2318L71.9544 48.3917C71.8252 48.4236 71.7929 48.5835 71.8252 48.6795C71.8575 48.8074 72.019 48.8394 72.1159 48.8074C72.1482 48.8074 72.1805 48.7754 72.2128 48.7434L72.4388 48.6155C78.6721 45.4176 85.8097 41.6122 92.9795 37.6788L93.1087 37.6148C92.6888 36.9753 92.3336 36.2717 92.1398 35.5362ZM129.862 5.28439C120.819 -4.59702 62.4915 4.29305 37.7199 9.66547L37.1386 9.79338C37.0094 9.82536 36.9448 9.9213 36.9448 10.0492C36.9448 10.1451 37.0417 10.2411 37.1709 10.2091H37.2032L37.7845 10.1132C58.3252 6.49958 101.054 1.47893 110.226 10.4969C113.036 13.2471 112.39 16.7967 109.128 20.9859C110.936 22.1372 112.196 23.9599 112.68 26.0386C125.373 17.6921 133.899 9.69745 129.862 5.28439Z" fill="#403F3F"/>
<path d="M95.8214 32.946C95.9183 36.4316 98.1467 39.2777 101.053 39.2777C106.673 39.2777 109.063 32.4343 108.902 27.8613C108.772 24.3757 106.512 21.5296 103.605 21.5296C98.7604 21.5296 95.6276 28.341 95.8214 32.946ZM92.8501 32.7541C92.624 26.8061 97.3393 20.7301 104.154 20.7301C108.74 20.7301 111.711 23.7681 111.873 28.373C112.099 34.6408 107.707 40.397 100.569 40.397C95.9829 40.397 93.0116 37.391 92.8501 32.7541Z" fill="#403F3F"/>
<path d="M28.1278 31.1871C27.8371 31.315 27.5141 31.379 27.1912 31.443L25.0596 31.8267C24.5428 31.8587 24.0261 32.0186 23.5739 32.2744C23.3156 32.4343 23.1218 32.6901 23.0895 33.0099C23.0249 33.2977 23.1541 33.5855 23.4124 33.7454C23.8323 33.9693 24.2845 34.0652 24.7689 34.0332C25.2534 34.0332 25.7378 33.9373 26.19 33.8094C26.6098 33.6815 26.9974 33.4896 27.3526 33.2018C27.5787 33.0099 27.7402 32.7541 27.8371 32.4663C27.9986 32.0506 28.0955 31.6348 28.1278 31.1871ZM34.0703 27.5416C34.038 28.0852 33.9412 28.5649 33.812 29.3963L32.8108 34.9606C32.7139 35.4083 32.94 35.888 33.3598 36.1118V36.3357H27.5787V34.9286C26.7067 35.4083 25.7701 35.7921 24.8012 36.0799C23.8969 36.3037 22.9926 36.4316 22.056 36.4316C20.1828 36.4316 19.117 36.2398 18.4065 35.6002C17.6959 34.9606 17.2761 34.5129 17.3084 33.5855C17.373 32.9779 17.6313 32.4023 18.0189 31.9546C18.4388 31.4749 18.9555 31.1232 19.5368 30.8673C20.2797 30.5476 21.0548 30.3557 21.8622 30.2278C22.8634 30.0679 24.2845 29.908 26.19 29.7481C26.8359 29.7161 27.4818 29.5882 28.0632 29.3324C28.483 29.1725 28.6122 29.0126 28.6768 28.6928C28.7414 28.373 28.6122 27.7974 27.8371 27.6375C25.7701 27.2537 21.8945 27.8933 19.8921 28.405L20.9579 25.4949C23.5093 25.0792 26.0931 24.8873 28.6768 24.8553C32.7785 24.8553 34.1026 26.0386 34.0703 27.5416Z" fill="#403F3F"/>
<path d="M50.7354 36.3357L52.7377 25.1752H58.2605L56.2581 36.3357H50.7354ZM53.0607 22.6169C53.2222 21.6895 54.6755 20.954 56.3227 20.954C57.9698 20.954 59.1325 21.6895 58.971 22.6169C58.8095 23.5443 57.3562 24.2798 55.709 24.2798C54.0619 24.2798 52.8992 23.5123 53.0607 22.6169Z" fill="#403F3F"/>
<path d="M77.7999 31.2191L76.8633 31.4749L74.6994 31.8587C74.1827 31.8907 73.6982 32.0506 73.2461 32.3064C72.9877 32.4663 72.7939 32.7221 72.7616 33.0099C72.697 33.2977 72.7939 33.6175 73.0523 33.7774C73.343 33.9693 73.7951 34.0332 74.4411 34.0332C74.9255 34.0332 75.41 33.9693 75.8621 33.8414C76.282 33.7134 76.6695 33.5216 77.0248 33.2338C77.2509 33.0419 77.4123 32.7861 77.5092 32.4983C77.6384 32.0825 77.7353 31.6668 77.7999 31.2191ZM83.7425 27.5416C83.7102 28.0852 83.6133 28.5969 83.4841 29.3963L82.4829 34.9926C82.386 35.4403 82.6121 35.92 83.032 36.1438V36.3357H77.2509V34.8967C76.3789 35.4083 75.4423 35.7921 74.4734 36.0799C73.5691 36.3037 72.6324 36.4316 71.6958 36.3997C69.8549 36.3997 68.7891 36.2078 68.0463 35.5682C67.3035 34.9286 66.9482 34.4809 66.9805 33.5855C67.0451 32.9779 67.3035 32.4023 67.6911 31.9226C68.1109 31.4749 68.6277 31.0912 69.209 30.8673C69.9518 30.5476 70.6946 30.3237 71.5021 30.2278C72.5356 30.0679 73.9566 29.908 75.8621 29.7481C76.508 29.6841 77.1217 29.5562 77.7353 29.3324C78.1229 29.1725 78.2844 29.0126 78.349 28.6928C78.4135 28.373 78.2844 27.7974 77.5092 27.6375C75.4423 27.2218 71.5667 27.8933 69.5643 28.373L70.6301 25.4949C73.1815 25.0792 75.7652 24.8873 78.349 24.8553C82.4506 24.8873 83.7748 26.0705 83.7425 27.5416Z" fill="#403F3F"/>
<path d="M16.5333 32.3383C15.0154 32.6581 13.4974 32.818 11.9472 32.818C9.33116 32.818 7.23188 31.5389 7.36107 29.1405C7.42566 27.5735 9.33116 24.2477 14.1111 24.2477C15.629 24.2157 17.1147 24.5995 18.4065 25.399L19.0847 21.5295C17.373 20.858 15.4998 20.5382 13.6589 20.6341C7.36107 20.6981 1.32159 23.5122 0.578769 29.2684C-0.164054 35.0245 7.0381 36.5915 10.2355 36.5915C12.0764 36.5915 14.0142 36.4956 15.7905 36.3357L16.5333 32.3383Z" fill="#403F3F"/>
<path d="M61.2964 25.1112L61.6839 22.8407L67.4327 21.6255L66.8191 25.1112H69.6612L69.1122 27.3817H66.367L64.7198 36.3357H59.1325L60.8119 27.3817H58.7126L59.1325 25.1431L61.2964 25.1112Z" fill="#403F3F"/>
<path d="M89.3298 36.3357H83.7102L86.5523 20.7941L92.0104 20.922L89.3298 36.3357Z" fill="#403F3F"/>
<path d="M43.4686 27.7974C42.758 27.7974 42.0798 28.0213 41.4985 28.437C40.9171 28.9167 40.5296 29.6202 40.4327 30.3557C40.2389 31.347 40.3358 32.0186 40.7234 32.4663C41.1755 32.914 41.7891 33.1379 42.4351 33.1059C42.9195 33.1059 43.404 33.0099 43.8561 32.8181C44.276 32.6262 44.6635 32.3064 44.9219 31.9227C45.2126 31.475 45.4387 30.9633 45.5356 30.4516C45.697 29.5562 45.5679 28.9167 45.148 28.469C44.6958 28.0213 44.0822 27.7654 43.4686 27.7974ZM33.4243 40.2051L36.1049 25.2391H40.9494L40.5619 27.1578C41.0786 26.4863 41.7891 26.0066 42.5966 25.7188C43.5978 25.3031 44.6635 25.1112 45.7293 25.0792C46.9889 25.0792 47.764 25.1432 48.7006 25.6229C49.5726 26.0706 50.2832 26.8061 50.6384 27.7335C51.026 28.6928 51.1229 29.7481 50.8968 30.7714C50.6384 32.5303 49.6372 34.1292 48.1839 35.1525C46.6982 36.2078 45.3741 36.4956 43.4686 36.4956C42.8872 36.4956 42.3059 36.4317 41.7569 36.3037C41.3693 36.2078 41.014 36.0799 40.6588 35.888C40.3358 35.6642 40.0128 35.3764 39.7545 35.0566L38.8502 40.2051H33.4243Z" fill="#403F3F"/>
<path d="M133.415 29.1725C133.383 28.2771 132.93 27.6695 131.994 27.6695C129.733 27.6695 127.343 32.0506 126.923 33.8094C130.605 33.8094 133.512 31.6348 133.415 29.1725ZM133.899 36.0479L134.319 36.3357C133.221 38.5422 130.993 40.333 128.344 40.333C126.18 40.333 124.436 38.926 124.339 36.2717C124.146 31.4749 128.7 27.0299 132.381 27.0299C133.964 27.0299 135.45 27.7334 135.514 29.4283C135.643 33.2338 130.25 34.385 126.697 34.449C126.568 34.8967 126.536 35.3763 126.568 35.856C126.633 37.455 127.601 38.7661 129.572 38.7661C131.542 38.7661 133.027 37.391 133.899 36.0479Z" fill="#403F3F"/>
<path d="M111.808 29.0446L113.068 28.9166C113.488 28.9166 113.843 29.0126 113.875 29.3963C113.908 29.7801 113.456 31.315 113.359 31.7308L112.487 35.4723C112.164 37.0073 111.776 38.6062 111.453 39.8853H113.649L114.877 33.9373C118.688 30.0359 120.141 28.7568 121.013 28.7568C121.368 28.7248 121.691 28.9806 121.723 29.3324C121.723 29.3643 121.723 29.4283 121.723 29.4603C121.756 30.1318 121.304 31.6988 121.174 32.1465L119.883 36.4636C119.624 37.455 119.398 38.3184 119.43 38.958C119.463 39.5975 120.044 40.333 120.884 40.333C122.499 40.333 123.694 38.6701 124.695 37.0392L124.404 36.4956C123.984 37.1352 123.048 38.5742 122.273 38.5742C122.046 38.5742 121.82 38.4143 121.82 38.0306C121.853 37.423 121.95 36.8474 122.143 36.2717L123.564 31.1871C123.92 29.7801 124.113 28.8847 124.113 28.405C124.113 27.9253 123.5 27.0299 122.66 27.0299C121.207 27.0299 119.269 28.0852 115.2 32.7221H115.135L115.652 30.4516C115.942 29.2045 116.201 27.9253 116.459 27.0299C114.941 27.5735 113.359 28.0212 111.776 28.341L111.808 29.0446Z" fill="#403F3F"/>
</g>
<defs>
<clipPath id="clip0_76_51">
<rect width="135" height="48" fill="white" transform="translate(0.51416 0.839355)"/>
</clipPath>
</defs>
</svg>
