<svg width="55" height="48" viewBox="0 0 55 48" fill="none" xmlns="http://www.w3.org/2000/svg">
<path fill-rule="evenodd" clip-rule="evenodd" d="M46.009 10.6876C46.4245 10.4797 46.9438 10.3757 47.4632 10.5836C47.4632 10.5836 47.4632 10.5836 47.567 10.5836C47.6709 10.5836 47.7748 10.7916 47.8786 10.7916C47.9825 10.8955 47.9825 10.9995 48.0864 11.2074C48.0864 11.3114 48.0864 11.4154 48.2941 11.5193C48.1902 11.6233 48.1902 11.6233 48.1902 11.7273C48.1902 11.8312 48.2941 11.8312 48.2941 11.9352V12.2471C48.1902 12.2471 48.1902 12.3511 48.1902 12.455V12.7669H48.2941C48.2941 12.8709 48.2941 12.9749 48.2941 13.0788C48.2941 13.1828 48.2941 13.2868 48.2941 13.3907C48.2941 13.4947 48.2941 13.5987 48.2941 13.7026C48.2941 13.7026 48.0864 13.7026 48.0864 13.8066C48.0864 13.9106 48.0864 13.9106 48.1902 14.0145C48.0864 14.1185 48.0864 14.1185 48.1902 14.2225L48.0864 14.3264C48.0864 14.6383 48.0864 14.9502 48.0864 15.2621C48.0864 15.3661 48.0864 15.3661 48.1902 15.574C48.1902 15.574 48.0864 15.678 48.1902 15.782V15.8859C48.1902 15.9899 48.1902 16.0939 48.2941 16.0939C48.2941 16.1978 48.2941 16.1978 48.2941 16.1978C48.2941 16.3018 48.2941 16.3018 48.2941 16.4058V16.5097C48.2941 16.6137 48.2941 16.6137 48.2941 16.7177C48.1902 16.8216 48.2941 16.8216 48.398 16.8216L48.2941 17.0296L48.398 17.1335C48.2941 17.2375 48.2941 17.2375 48.2941 17.3415C48.2941 17.4454 48.2941 17.4454 48.2941 17.5494C48.1902 17.6534 48.398 17.7573 48.398 17.7573C48.398 17.7573 48.398 17.8613 48.2941 17.8613C48.1902 17.9653 48.1902 17.9653 48.2941 17.9653V18.0692C48.2941 18.1732 48.2941 18.2772 48.398 18.2772C48.398 18.2772 48.398 18.2772 48.5018 18.3811C48.6057 18.5891 48.8134 18.5891 49.0212 18.4851C49.3327 18.3811 49.6443 18.1732 50.0598 18.0692C50.5791 17.8613 50.9946 17.5494 51.5139 17.3415C52.0333 17.1335 52.5526 17.0296 53.0719 17.1335C53.1758 17.1335 53.2797 17.1335 53.3835 17.1335C53.4874 17.1335 53.5913 17.2375 53.6951 17.2375C53.9029 17.4454 54.0067 17.6534 54.1106 17.8613C54.1106 17.8613 54.1106 17.8613 54.1106 17.9653V18.0692C54.0067 18.1732 54.0067 18.1732 54.1106 18.2772V18.3811H54.0067C53.9029 18.4851 53.9029 18.589 53.799 18.693C53.5913 19.2128 53.1758 19.5247 52.6565 19.8366C52.241 20.1485 51.7217 20.2525 51.2023 20.3565C50.5791 20.5644 50.0598 20.7723 49.4366 20.9803C48.8134 21.1882 48.1902 21.5001 47.6709 21.708C47.2554 21.916 46.84 22.1239 46.5284 22.3318C46.1129 22.5398 45.5936 22.8517 45.1781 23.0596C44.5549 23.3715 44.0356 23.6834 43.4124 23.9953C42.5814 24.5151 41.6467 24.931 40.8157 25.4508C40.1925 25.7627 39.6732 26.0746 39.05 26.4905C38.5307 26.8024 38.0113 27.0103 37.5959 27.3222C37.1804 27.6341 36.7649 27.8421 36.3495 28.154C36.1417 28.2579 36.0379 28.4658 35.8301 28.5698C35.3108 28.7777 34.8954 29.0896 34.4799 29.4015C34.2722 29.5055 34.0644 29.7134 33.8567 29.8174C33.8567 29.8174 33.8567 29.8174 33.7528 29.8174C33.7528 30.0253 33.5451 30.0253 33.4412 30.1293C33.3374 30.2333 33.2335 30.3372 33.2335 30.4412C33.2335 30.6491 33.2335 30.8571 33.2335 31.065V31.169C33.3374 31.2729 33.2335 31.2729 33.2335 31.3769V31.4809C33.3374 31.5848 33.2335 31.6888 33.2335 31.8967C33.3374 32.0007 33.3374 32.1047 33.3374 32.2086C33.3374 32.3126 33.2335 32.5205 33.3374 32.6245L33.2335 32.7285V32.8324C33.3374 32.9364 33.3374 33.0404 33.2335 33.1443V33.2483C33.3374 33.3523 33.2335 33.4562 33.2335 33.5602C33.2335 33.8721 33.2335 34.08 33.2335 34.3919C33.2335 34.4959 33.2335 34.5999 33.2335 34.7038V34.8078C33.1296 34.9118 33.1296 35.0157 33.2335 35.0157C33.2335 35.1197 33.2335 35.2237 33.2335 35.2237C33.2335 35.5356 33.2335 35.9514 33.2335 36.2633C33.2335 36.3673 33.2335 36.4713 33.2335 36.5752C33.2335 36.6792 33.2335 36.6792 33.2335 36.7832C33.2335 36.7832 33.2335 36.7832 33.2335 36.8871C33.2335 36.9911 33.2335 37.199 33.2335 37.303C33.2335 37.407 33.2335 37.6149 33.2335 37.7189C33.2335 37.8228 33.1296 37.8228 33.1296 37.9268C33.1296 38.0308 33.1296 38.1347 33.1296 38.1347L33.2335 38.2387C33.2335 38.2387 33.2335 38.2387 33.2335 38.3427H33.0258L32.9219 38.6545V38.7585C33.0258 38.8625 32.9219 38.9664 32.9219 38.9664C32.9219 39.0704 32.818 39.1744 32.818 39.2783C32.818 39.3823 32.9219 39.4863 32.9219 39.6942V39.7982C32.7142 39.9021 32.818 40.1101 32.9219 40.214V40.318C32.818 40.318 32.7142 40.5259 32.818 40.6299C32.9219 40.6299 32.9219 40.7339 33.0258 40.8378L32.9219 40.9418C33.0258 41.1497 33.0258 41.1497 32.9219 41.3577L33.1296 41.5656L32.9219 41.7735H33.0258C32.9219 41.8775 32.9219 41.9815 33.0258 41.9815C33.0258 42.0854 33.1296 42.1894 33.0258 42.3973L32.9219 42.5013C33.0258 42.6053 33.0258 42.7092 32.9219 42.8132C32.9219 42.9172 32.9219 43.0211 33.0258 43.0211C33.1296 43.0211 33.1296 43.1251 33.1296 43.1251C33.1296 43.333 33.2335 43.541 33.3374 43.6449C33.2335 43.7489 33.2335 43.9568 33.0258 43.9568H33.1296L33.0258 44.0608C33.0258 44.1648 33.0258 44.2687 33.0258 44.3727C33.0258 44.4767 33.1296 44.4767 33.2335 44.4767C33.3374 44.4767 33.4412 44.5806 33.4412 44.5806C33.4412 44.6846 33.4412 44.6846 33.5451 44.7886C33.4412 44.8925 33.5451 45.1005 33.3374 45.1005H33.4412L33.3374 45.3084C33.4412 45.4124 33.4412 45.4124 33.5451 45.6203C33.5451 45.6203 33.649 45.7243 33.7528 45.7243C33.649 45.8282 33.649 45.8282 33.649 46.0362C33.649 46.0362 33.649 46.0362 33.649 46.1401C33.649 46.1401 33.649 46.2441 33.5451 46.2441L33.7528 46.3481C33.649 46.452 33.649 46.452 33.5451 46.556C33.5451 46.66 33.4412 46.7639 33.4412 46.7639C33.3374 46.8679 33.2335 46.9719 33.1296 47.0758C32.9219 47.1798 32.818 47.2838 32.6103 47.3877C32.5064 47.4917 32.4026 47.4917 32.2987 47.4917C32.091 47.4917 31.9871 47.4917 31.8832 47.4917H31.7794C31.4678 47.3877 31.26 47.2838 31.0523 47.0758C30.8446 46.8679 30.8446 46.66 30.7407 46.452C30.533 45.8282 30.533 45.2044 30.533 44.6846C30.533 44.2687 30.533 43.7489 30.533 43.333C30.533 43.0211 30.533 42.7092 30.533 42.2934C30.533 41.9815 30.533 41.6696 30.533 41.3577C30.533 41.0458 30.533 40.8378 30.533 40.5259C30.533 40.318 30.533 40.1101 30.533 39.7982C30.533 39.5902 30.533 39.4863 30.533 39.2783C30.533 39.0704 30.533 38.8625 30.533 38.6545C30.533 38.5506 30.533 38.4466 30.533 38.4466V38.3427C30.6368 38.2387 30.6368 38.1347 30.6368 37.9268C30.6368 37.199 30.6368 36.5752 30.6368 35.8475V34.08C30.6368 33.6642 30.6368 33.1443 30.6368 32.7285C30.6368 32.6245 30.6368 32.4166 30.6368 32.3126V32.2086C30.4291 32.3126 30.2214 32.4166 30.0136 32.5205C29.7021 32.7285 29.2866 33.0404 28.975 33.3523C28.6634 33.6642 28.2479 33.8721 27.9363 34.184L27.2093 34.8078C26.8977 35.0157 26.6899 35.2237 26.3783 35.4316C25.9629 35.8475 25.4435 36.1594 25.0281 36.5752C24.7165 36.7832 24.4049 37.0951 24.0933 37.303L22.743 38.4466C22.4314 38.7585 22.1198 38.9664 21.7044 39.2783C21.4966 39.4863 21.2889 39.6942 21.185 39.7982C21.0812 39.9021 21.0812 40.0061 20.9773 40.1101C20.7696 40.318 20.5618 40.422 20.3541 40.6299C20.1464 40.8378 19.9386 41.0458 19.7309 41.2537C19.627 41.3577 19.5232 41.4616 19.3154 41.5656C19.2116 41.6696 19.2116 41.6696 19.1077 41.7735C19.0038 41.8775 19.0038 41.8775 18.9 41.9815C18.7961 42.0854 18.6922 42.1894 18.5884 42.2934L17.2381 43.6449C17.1342 43.7489 17.1342 43.7489 17.0304 43.8529L16.6149 44.3727C16.6149 44.4767 16.511 44.4767 16.4072 44.5806L16.0956 44.8925L15.9917 44.9965C15.784 45.2044 15.6801 45.3084 15.4724 45.5163L14.9531 46.0362C14.7453 46.1401 14.6415 46.2441 14.4337 46.2441C14.0183 46.2441 13.7067 46.2441 13.2912 46.0362C13.0835 45.9322 12.9796 45.8282 12.8757 45.6203C12.7719 45.4124 12.668 45.1005 12.668 44.8925C12.668 44.6846 12.668 44.5806 12.7719 44.3727C12.9796 44.1648 13.0835 43.9568 13.2912 43.7489C13.7067 43.2291 14.226 42.7092 14.7453 42.2934C15.0569 41.9815 15.4724 41.6696 15.8879 41.2537C16.1994 40.9418 16.511 40.7339 16.8226 40.422C17.1342 40.1101 17.4458 39.7982 17.8613 39.5902C18.2768 39.2783 18.5884 38.9664 19.0038 38.6545C19.3154 38.3427 19.627 38.1347 19.9386 37.9268C20.1464 37.7189 20.458 37.5109 20.6657 37.303C20.8734 37.199 20.9773 37.0951 21.185 36.8871L22.1198 36.1594L22.9507 35.5356C23.1585 35.4316 23.3662 35.2237 23.4701 35.1197C23.5739 35.0157 23.6778 34.9118 23.8855 34.8078C23.9894 34.7038 24.0933 34.5999 24.1971 34.5999L25.4435 33.6642C25.7551 33.4562 26.0667 33.1443 26.4822 32.9364L27.417 32.3126C27.7286 32.1047 27.9363 31.8967 28.2479 31.6888C28.7673 31.3769 29.1827 30.961 29.702 30.6491C30.0136 30.4412 30.3252 30.2333 30.6368 29.9214C30.7407 29.9214 30.7407 29.8174 30.7407 29.7134C30.7407 29.5055 30.7407 29.1936 30.7407 28.9857C30.7407 28.8817 30.7407 28.6738 30.7407 28.5698C30.7407 28.5698 30.7407 28.4659 30.6368 28.4659C30.6368 28.4659 30.533 28.4658 30.533 28.5698C30.3252 28.7777 30.0136 28.8817 29.8059 29.0896H29.702C29.4943 29.0896 29.3905 29.1936 29.1827 29.2976C29.1827 29.2976 29.0789 29.2976 29.0789 29.4015H28.975C28.8711 29.4015 28.7673 29.4015 28.6634 29.4015C28.3518 29.5055 28.0402 29.5055 27.7286 29.5055C27.2093 29.5055 26.6899 29.2976 26.3783 28.7777C26.1706 28.5698 26.1706 28.3619 26.0667 28.05C25.9629 27.5302 25.9629 27.0103 25.9629 26.4905C25.9629 26.2826 25.9629 25.9707 25.9629 25.7627C25.9629 25.6588 25.9629 25.4508 25.9629 25.3469C25.9629 25.2429 25.9629 25.2429 25.9629 25.1389C26.0667 24.7231 26.0667 24.3072 26.0667 23.8913C26.1706 23.2675 26.2745 22.5398 26.4822 21.916C26.6899 21.2922 26.8977 20.7723 27.3131 20.2525C27.5209 20.0446 27.6247 19.8366 27.8325 19.6287C28.0402 19.4208 28.2479 19.2128 28.5595 19.1089C28.5595 19.1089 28.6634 19.1089 28.6634 19.0049C28.975 18.693 29.2866 18.693 29.702 18.5891C29.9098 18.5891 30.0136 18.5891 30.2214 18.5891C30.3252 18.5891 30.4291 18.693 30.4291 18.797C30.4291 18.9009 30.533 19.0049 30.4291 19.2128C30.4291 19.3168 30.4291 19.4208 30.3252 19.5247C30.3252 19.7327 30.1175 19.9406 30.0136 20.1485C30.0136 20.2525 29.9098 20.2525 29.8059 20.2525C29.702 20.3565 29.5982 20.4604 29.5982 20.5644C29.5982 20.5644 29.5982 20.6684 29.4943 20.6684C29.3905 20.7723 29.3905 20.8763 29.2866 20.9803C29.2866 21.0842 29.1827 21.1882 29.0789 21.2922C29.0789 21.3961 28.975 21.5001 28.975 21.5001C28.975 21.6041 28.975 21.708 28.8711 21.812C28.7673 21.916 28.7673 21.916 28.7673 22.0199C28.6634 22.2279 28.6634 22.4358 28.5595 22.6437C28.4557 22.8517 28.4557 23.0596 28.4557 23.1636C28.4557 23.2675 28.4557 23.3715 28.4557 23.4755C28.5595 23.5794 28.5595 23.6834 28.4557 23.7874C28.4557 23.8913 28.4557 23.8913 28.4557 23.9953C28.4557 24.0993 28.4557 24.3072 28.3518 24.4112C28.3518 24.5151 28.3518 24.6191 28.3518 24.7231V24.827C28.2479 25.1389 28.3518 25.5548 28.3518 25.8667C28.3518 26.0746 28.4557 26.1786 28.5595 26.3865C28.6634 26.5945 28.8711 26.6984 29.0789 26.6984C29.4943 26.6984 29.9098 26.4905 30.2214 26.1786C30.533 25.8667 30.6368 25.5548 30.7407 25.1389C30.8446 24.6191 30.9484 23.9953 30.9484 23.4755C30.9484 23.1636 31.0523 22.8517 31.0523 22.4358C31.0523 22.2279 31.1562 22.1239 31.0523 21.916C31.1562 21.708 31.1562 21.6041 31.1562 21.3961C31.1562 21.0842 31.26 20.7723 31.26 20.4604C31.26 19.9406 31.3639 19.5247 31.3639 19.0049C31.3639 18.693 31.3639 18.3811 31.4678 18.0692C31.5716 17.6534 31.8832 17.3415 32.1948 17.2375C32.5064 17.1335 32.7142 17.1335 33.0258 17.1335C33.2335 17.1335 33.4412 17.2375 33.5451 17.3415C33.7528 17.5494 33.7528 17.7573 33.7528 17.9653C33.7528 18.0692 33.7528 18.1732 33.7528 18.3811V18.4851V18.5891C33.8567 18.797 33.649 19.1089 33.7528 19.3168C33.649 19.5247 33.7528 19.7327 33.649 20.0446C33.5451 20.2525 33.5451 20.5644 33.5451 20.7723C33.5451 21.1882 33.5451 21.708 33.4412 22.1239C33.4412 22.5398 33.3374 23.0596 33.3374 23.4755C33.3374 23.6834 33.3374 23.8913 33.3374 24.0993C33.3374 24.2032 33.3374 24.3072 33.3374 24.4112C33.3374 24.7231 33.3374 25.035 33.3374 25.2429C33.3374 25.3469 33.3374 25.5548 33.3374 25.6588C33.3374 25.7627 33.3374 25.8667 33.3374 25.9707C33.3374 26.1786 33.3374 26.2826 33.3374 26.4905C33.3374 26.6984 33.3374 26.8024 33.3374 27.0103C33.3374 27.1143 33.3374 27.3222 33.3374 27.4262C33.3374 27.6341 33.3374 27.7381 33.3374 27.946C33.3374 27.946 33.3374 28.05 33.3374 28.154C33.4412 28.154 33.4412 28.05 33.5451 28.05C33.8567 27.8421 34.0644 27.6341 34.376 27.5302C34.8954 27.2183 35.4147 26.9064 35.934 26.5945C36.3495 26.3865 36.7649 26.0746 37.1804 25.8667C37.492 25.6588 37.6997 25.5548 38.0113 25.3469C38.1152 25.2429 38.3229 25.1389 38.4268 25.1389C38.6345 25.035 38.7384 24.931 38.9461 24.827H39.05C39.1539 24.827 39.2577 24.827 39.2577 24.7231C39.7771 24.4112 40.2964 24.0993 40.7119 23.8913C41.1273 23.6834 41.5428 23.3715 41.9583 23.1636L44.1394 21.916L45.6974 21.0842C45.8013 20.9803 46.009 20.8763 46.1129 20.8763C46.1129 20.8763 46.2168 20.8763 46.2168 20.7723C46.3206 20.6684 46.3206 20.6684 46.2168 20.5644C46.1129 20.4604 46.009 20.4604 45.9052 20.3565C45.6974 20.1485 45.6974 19.9406 45.5936 19.7327C45.5936 19.4208 45.5936 19.2128 45.5936 18.9009C45.5936 18.5891 45.6974 18.1732 45.6974 17.8613V17.7573C45.5936 17.5494 45.6974 17.2375 45.6974 17.0296V16.9256C45.6974 16.8216 45.5936 16.7177 45.6974 16.5097C45.6974 16.0939 45.9052 15.782 45.5936 15.3661C45.4897 15.1582 45.4897 14.8463 45.5936 14.6383C45.8013 14.3264 45.6974 14.1185 45.4897 14.0145L45.3858 13.9106C45.1781 13.9106 44.8665 13.8066 44.6588 14.0145C44.451 14.1185 44.3472 14.2225 44.1394 14.3264C44.0356 14.4304 43.9317 14.5344 43.9317 14.6383C43.9317 14.7423 43.8278 14.7423 43.8278 14.8463C43.724 14.9502 43.6201 15.0542 43.5162 15.2621C43.5162 15.3661 43.4124 15.3661 43.3085 15.4701C43.3085 15.574 43.3085 15.782 43.2046 15.8859V15.9899C43.2046 16.0939 43.2046 16.3018 43.1008 16.4058C43.1008 16.4058 43.1008 16.4058 43.1008 16.5097C43.1008 16.6137 43.1008 16.6137 42.9969 16.6137L42.893 15.782L42.9969 15.8859V16.0939C42.9969 16.0939 42.893 16.0939 42.893 16.1978C42.893 16.1978 42.893 16.3018 42.893 16.4058C42.893 16.5097 42.893 16.6137 42.9969 16.6137C42.9969 16.7177 42.9969 16.7177 42.9969 16.8216C42.893 16.9256 42.893 16.9256 42.7892 17.0296V17.1335C42.893 17.2375 42.893 17.3415 42.893 17.4454V17.5494C42.893 17.5494 42.7892 17.6534 42.7892 17.5494C42.7892 17.6534 42.6853 17.7573 42.7892 17.8613C42.6853 18.0692 42.7892 18.3811 42.6853 18.693C42.6853 18.797 42.7892 18.797 42.7892 18.797C42.6853 18.9009 42.5814 19.0049 42.7892 19.2128L42.6853 19.3168L42.7892 19.4208C42.7892 19.5247 42.6853 19.6287 42.6853 19.7327C42.6853 19.8366 42.6853 19.9406 42.6853 19.9406C42.5815 20.0446 42.6853 20.0446 42.6853 20.1485C42.6853 20.1485 42.6853 20.2525 42.6853 20.3565C42.5815 20.5644 42.4776 20.6684 42.4776 20.8763C42.4776 21.1882 42.166 21.2922 41.9583 21.5001C41.7505 21.6041 41.5428 21.708 41.3351 21.812C41.1273 21.916 40.8157 21.916 40.608 21.916C40.2964 21.812 40.1925 21.6041 40.0887 21.2922C40.0887 21.1882 40.0887 20.9803 40.0887 20.8763C40.0887 20.1485 40.1925 19.4208 40.1925 18.797C40.1925 18.4851 40.1925 18.1732 40.1925 17.8613C40.1925 17.3415 40.2964 16.8216 40.2964 16.3018C40.2964 15.8859 40.2964 15.4701 40.4003 15.1582C40.4003 14.9502 40.4003 14.6383 40.4003 14.4304C40.5041 14.0145 40.608 13.4947 41.0235 13.1828C41.4389 12.7669 41.9583 12.559 42.5814 12.663C42.6853 12.663 42.6853 12.663 42.7892 12.663C42.893 12.559 42.9969 12.559 43.2046 12.663C43.4124 12.7669 43.6201 12.7669 43.8278 12.663C44.1394 12.559 44.3472 12.3511 44.5549 12.1431C44.5549 12.0392 44.6588 12.0392 44.7626 11.9352C44.9704 11.7273 45.0742 11.6233 45.282 11.4154C45.282 11.4154 45.3858 11.3114 45.4897 11.3114C45.4897 10.8955 45.6974 10.7916 46.009 10.6876ZM19.8348 0.187012C19.9386 0.187012 20.1464 0.187012 20.2502 0.187012C20.458 0.187012 20.5618 0.290978 20.7696 0.290978C21.3928 0.498911 21.8082 0.914776 22.016 1.53857C22.1198 1.74651 22.1198 2.05841 22.1198 2.3703C22.1198 2.6822 22.016 2.9941 21.8082 3.20204C21.7044 3.306 21.6005 3.51393 21.4966 3.6179V3.72187C21.4966 3.82583 21.3928 3.9298 21.3928 4.03377C21.3928 4.03377 21.3928 4.03377 21.2889 4.03377C21.185 4.03377 21.0812 4.13773 20.9773 4.2417C20.9773 4.34566 20.9773 4.34566 20.8734 4.2417C20.7696 4.34566 20.5618 4.44963 20.458 4.65756C20.1464 5.07343 19.7309 5.48929 19.5232 5.90516C19.4193 6.00913 19.3154 6.21706 19.2116 6.42499C18.6922 7.04879 18.4845 7.88052 18.1729 8.50432C17.9652 8.92018 17.7574 9.33605 17.6536 9.75191C17.6536 9.85588 17.5497 9.95985 17.5497 10.1678C17.5497 10.2717 17.5497 10.2717 17.5497 10.3757C17.5497 10.4797 17.4458 10.5836 17.4458 10.6876C17.342 10.9995 17.1342 11.2074 17.0304 11.5193C16.9265 11.6233 16.9265 11.8312 16.9265 11.9352C16.9265 12.1431 16.8226 12.2471 16.7188 12.3511C16.6149 12.455 16.6149 12.663 16.511 12.7669C16.4072 12.9749 16.4072 13.1828 16.3033 13.3907C16.1994 13.5987 16.1994 13.8066 16.0956 14.0145C16.0956 14.2225 15.9917 14.3264 15.9917 14.5344C15.8879 14.8463 15.8879 15.1582 15.6801 15.4701C15.6801 15.574 15.6801 15.574 15.6801 15.678C15.6801 15.782 15.6801 15.782 15.6801 15.8859C15.5763 16.0939 15.4724 16.1978 15.4724 16.4058C15.3685 16.7177 15.3685 16.9256 15.2647 17.2375C15.1608 17.3415 15.1608 17.5494 15.1608 17.6534C15.1608 17.9653 15.0569 18.1732 15.0569 18.4851C15.0569 18.5891 15.0569 18.589 15.0569 18.693C15.0569 18.9009 14.9531 19.0049 14.9531 19.2128C14.9531 19.2128 14.9531 19.3168 14.8492 19.3168C14.7453 19.4208 14.6415 19.5247 14.6415 19.6287L14.5376 19.9406V20.0446C14.4337 20.1485 14.4337 20.3565 14.3299 20.4604C14.3299 20.5644 14.226 20.6684 14.226 20.6684C14.1221 20.8763 14.0183 21.1882 14.0183 21.3961L13.9144 21.916C13.8105 22.4358 13.7067 22.9556 13.6028 23.3715C13.4989 23.7874 13.3951 24.0993 13.2912 24.5151V24.6191V24.827V24.931C13.1873 25.035 13.2912 25.035 13.2912 25.1389C13.2912 25.2429 13.1873 25.2429 13.2912 25.3469C13.2912 25.3469 13.2912 25.4508 13.2912 25.5548C13.1873 25.7627 13.0835 25.9707 13.0835 26.1786C13.1873 26.3865 13.1873 26.6984 12.9796 26.9064C12.9796 27.0103 12.8757 27.0103 12.8757 27.1143C12.9796 27.3222 12.8757 27.5302 12.7719 27.6341C12.7719 27.7381 12.668 27.8421 12.668 27.946C12.668 28.154 12.668 28.2579 12.668 28.4659C12.668 28.4659 12.668 28.5698 12.5641 28.5698C12.4603 28.6738 12.4603 28.6738 12.4603 28.7777C12.4603 28.8817 12.4603 28.8817 12.4603 28.9857C12.3564 29.2976 12.3564 29.6095 12.2525 29.9214C12.2525 30.0253 12.2525 30.2333 12.1487 30.3372C12.1487 30.4412 12.2525 30.5452 12.3564 30.5452C12.3564 30.7531 12.3564 30.8571 12.3564 31.065C12.2525 31.2729 12.3564 31.4809 12.1487 31.5848C12.0448 31.6888 12.0448 31.7928 12.0448 32.0007C12.0448 32.2086 12.0448 32.4166 11.9409 32.7285C11.9409 32.8324 11.9409 32.8324 11.9409 32.9364C11.9409 33.0404 11.9409 33.1443 12.0448 33.1443C12.1487 33.2483 12.1487 33.3523 11.9409 33.4562C11.9409 33.6642 11.8371 33.8721 11.8371 33.9761C11.7332 34.184 11.7332 34.3919 11.7332 34.5999C11.6293 35.1197 11.6293 35.7435 11.5255 36.2633C11.4216 36.8871 11.4216 37.5109 11.3177 38.1347C11.2139 38.7585 11.11 39.3823 11.11 39.9021C11.0061 40.318 11.0061 40.8378 10.9023 41.2537C10.7984 41.5656 10.7984 41.9815 10.6945 42.2934C10.5907 42.8132 10.0713 43.1251 9.65588 43.1251C9.13655 43.2291 8.61722 42.7092 8.61722 42.2934C8.51335 41.7735 8.40949 41.3577 8.30562 40.8378C8.20176 40.422 8.20176 40.0061 8.09789 39.5902C7.99402 39.1744 7.99402 38.8625 7.89016 38.4466V38.3427C7.89016 38.2387 7.78629 38.2387 7.89016 38.1347V38.0308C7.78629 37.7189 7.78629 37.303 7.68243 36.9911C7.68243 36.8871 7.68243 36.8871 7.57856 36.8871C7.68243 36.6792 7.68243 36.5752 7.47469 36.4713V36.3673C7.47469 36.2633 7.47469 36.0554 7.47469 35.9514L7.37083 35.6395C6.95536 35.1197 6.8515 34.4959 6.74763 33.9761C6.64376 33.5602 6.64376 33.1443 6.5399 32.8324L6.33217 31.2729C6.2283 30.8571 6.2283 30.4412 6.12443 30.1293C6.02057 29.7134 6.02057 29.2976 5.9167 28.8817V28.7777C5.81283 28.5698 5.81284 28.3619 5.81284 28.154C5.81284 28.05 5.81284 27.946 5.81284 27.8421C5.70897 27.3222 5.6051 26.8024 5.6051 26.2826C5.6051 26.0746 5.6051 25.9707 5.50124 25.7627C5.50124 25.6588 5.39737 25.6588 5.39737 25.5548C5.2935 25.4508 5.2935 25.4508 5.2935 25.3469C5.2935 25.2429 5.2935 25.1389 5.2935 25.1389C5.2935 25.035 5.2935 24.931 5.2935 24.827C5.2935 24.7231 5.2935 24.7231 5.2935 24.6191C5.18964 24.5151 5.18964 24.6191 5.08577 24.6191V24.5151C5.08577 24.4112 5.08577 24.3072 4.98191 24.3072C4.98191 24.2032 4.87804 24.0993 4.77417 24.0993C4.77417 24.0993 4.67031 24.0993 4.67031 24.2032C4.67031 24.3072 4.56644 24.4112 4.56644 24.5151C4.56644 24.6191 4.46257 24.6191 4.46257 24.6191H4.35871C4.35871 24.7231 4.25484 24.7231 4.25484 24.827C4.25484 25.035 4.25484 25.1389 4.15098 25.2429C4.04711 25.3469 3.94324 25.5548 3.94324 25.6588C3.83938 25.9707 3.83938 26.1786 3.83938 26.3865V26.4905L3.73551 26.6984C3.73551 26.9064 3.63165 27.0103 3.52778 27.1143C3.52778 27.1143 3.42391 27.2183 3.52778 27.2183C3.42391 27.3222 3.42391 27.4262 3.42391 27.4262C3.42391 27.6341 3.21618 27.7381 3.21618 27.946C3.11231 28.154 3.11231 28.2579 3.00845 28.4659C3.00845 28.5698 2.80072 28.6738 2.90458 28.7777C2.80072 28.8817 2.69685 28.9857 2.59298 29.0896C2.28139 29.2976 1.86592 29.4015 1.45046 29.2976C1.03499 29.0896 0.723394 28.6738 0.82726 28.2579C0.82726 28.154 0.931126 28.05 0.931126 27.946C1.03499 27.5302 1.24272 27.1143 1.34659 26.5945C1.45046 26.1786 1.65819 25.8667 1.76206 25.4508C1.76206 25.3469 1.76206 25.2429 1.76206 25.2429C1.86592 25.035 1.86592 24.931 1.96979 24.827C2.07365 24.7231 2.07365 24.6191 2.07365 24.4112C2.07365 24.3072 2.07365 24.2032 2.17752 24.0993C2.28139 23.8913 2.38525 23.6834 2.38525 23.4755C2.48912 23.1636 2.59298 22.8517 2.69685 22.6437L2.90458 22.0199C3.00845 21.812 3.00845 21.6041 3.00845 21.5001C3.11231 21.2922 3.21618 21.0842 3.21618 20.7723C3.52778 20.1485 3.63165 19.4208 3.94324 18.797C4.04711 18.589 4.04711 18.3811 4.15098 18.1732C4.25484 17.8613 4.46257 17.5494 4.77417 17.4454C5.2935 17.1335 6.12443 17.2375 6.43603 17.7573C6.64376 17.9653 6.74763 18.2772 6.74763 18.4851C6.8515 19.2128 6.95536 19.8366 7.05923 20.5644C7.16309 20.8763 7.16309 21.1882 7.16309 21.5001C7.16309 21.6041 7.1631 21.708 7.26696 21.812V21.916V22.0199C7.37083 22.2279 7.37083 22.4358 7.37083 22.6437V22.7477V22.8517C7.47469 22.9556 7.47469 23.0596 7.47469 23.1636C7.47469 23.1636 7.47469 23.1636 7.47469 23.2675C7.37083 23.5794 7.47469 23.7874 7.57856 24.0993C7.57856 24.4112 7.68243 24.6191 7.68243 24.931C7.68243 25.1389 7.68243 25.2429 7.78629 25.4508C7.78629 25.5548 7.89016 25.5548 7.89016 25.6588C7.89016 25.7627 7.89016 25.7627 7.89016 25.8667C7.99402 26.1786 8.09789 26.3865 8.09789 26.6984C8.09789 26.8024 8.20176 26.9064 8.20176 27.0103C8.09789 27.2183 8.20176 27.3222 8.20176 27.5302C8.30562 27.7381 8.30562 27.8421 8.30562 28.05C8.30562 28.2579 8.40949 28.4659 8.51335 28.6738V28.7777C8.61722 28.8817 8.61722 29.0896 8.51335 29.1936C8.40949 29.4015 8.40949 29.6095 8.40949 29.7134C8.40949 29.9214 8.40949 30.1293 8.61722 30.2333C8.61722 30.2333 8.72109 30.3372 8.72109 30.4412C8.72109 30.5452 8.72109 30.6491 8.72109 30.8571C8.72109 30.961 8.72109 31.065 8.72109 31.065C9.03269 31.169 8.92882 31.4809 9.03269 31.6888C9.03269 31.7928 9.03269 31.7928 9.13655 31.8967C9.13655 31.8967 9.13655 31.8967 9.13655 32.0007C9.13655 32.1047 9.13655 32.3126 9.13655 32.4166C9.13655 32.5205 9.13655 32.5205 9.24042 32.6245C9.24042 32.6245 9.34428 32.7285 9.44815 32.7285C9.44815 32.6245 9.55202 32.5205 9.55202 32.4166C9.65588 32.0007 9.65588 31.6888 9.65588 31.2729C9.75975 30.6491 9.86361 30.0253 9.96748 29.4015C9.96748 29.0896 10.0713 28.8817 10.0713 28.5698C10.0713 28.3619 10.0713 28.154 10.0713 27.946C10.1752 27.4262 10.2791 26.9064 10.3829 26.3865C10.4868 25.8667 10.5907 25.2429 10.6945 24.7231C10.6945 24.5151 10.7984 24.3072 10.7984 24.0993L11.0061 22.7477C11.0061 22.6437 11.11 22.4358 11.11 22.3318L11.3177 21.3961C11.3177 21.2922 11.4216 21.1882 11.4216 21.0842C11.6293 20.3565 11.8371 19.6287 12.0448 18.9009C12.1487 18.693 12.1487 18.4851 12.2525 18.2772C12.2525 18.0692 12.2525 17.9653 12.3564 17.7573C12.4603 17.4454 12.5641 17.1335 12.668 16.8216C12.7719 16.5097 12.8757 16.0939 12.9796 15.782C13.0835 15.574 13.0835 15.3661 13.1873 15.1582C13.1873 14.8463 13.1873 14.7423 13.1873 14.5344V14.4304C13.2912 14.2225 13.3951 13.9106 13.3951 13.7026C13.4989 13.2868 13.6028 12.9749 13.8105 12.663C13.9144 12.455 14.0183 12.2471 14.0183 12.0392C14.0183 11.8312 14.1221 11.7273 14.226 11.5193C14.3299 11.4154 14.3299 11.3114 14.3299 11.2074C14.6415 10.2717 14.9531 9.54398 15.2647 8.81622C15.3685 8.50432 15.4724 8.08845 15.6801 7.77655C15.8879 7.25672 16.0956 6.63292 16.3033 6.11309C16.511 5.48929 16.7188 4.96946 16.9265 4.34566C17.0304 4.13773 17.1342 3.9298 17.1342 3.72187C17.2381 3.40997 17.342 3.20203 17.4458 2.89014C17.5497 2.47427 17.7574 2.05841 17.9652 1.74651C18.1729 1.43461 18.3806 1.12271 18.6922 0.81081C19.1077 0.498911 19.4193 0.290978 19.8348 0.187012ZM17.1342 23.3715H17.2381C17.4458 23.3715 17.6536 23.5794 17.6536 23.6834C17.6536 23.7874 17.7574 23.8913 17.7574 24.0993C17.7574 24.2032 17.8613 24.2032 17.8613 24.3072C17.7574 24.4112 17.6536 24.4112 17.7574 24.5151C17.7574 24.6191 17.8613 24.7231 17.8613 24.931C17.8613 25.035 17.7574 25.1389 17.8613 25.2429C17.8613 25.2429 17.8613 25.3469 17.8613 25.4508C17.7574 25.5548 17.7574 25.6588 17.7574 25.7627C17.7574 25.8667 17.7574 26.0746 17.7574 26.1786C17.7574 26.3865 17.7574 26.5945 17.5497 26.8024V26.9064C17.5497 27.2183 17.5497 27.4262 17.5497 27.7381C17.5497 27.8421 17.5497 28.05 17.4458 28.154C17.342 28.2579 17.342 28.3619 17.342 28.4659C17.342 28.5698 17.342 28.7777 17.2381 28.8817C17.2381 28.9857 17.1342 29.1936 17.1342 29.2976C17.1342 29.6095 17.0304 29.9214 17.0304 30.2333C17.0304 30.4412 17.0304 30.6491 17.0304 30.7531C17.0304 30.961 17.1342 31.2729 17.0304 31.5848C16.9265 31.7928 16.9265 32.0007 16.9265 32.1047C16.9265 32.2086 16.9265 32.2086 16.8226 32.3126C16.8226 32.4166 16.8226 32.4166 16.8226 32.5205H17.0304V32.7285C16.9265 32.7285 16.8226 32.7285 16.8226 32.8324C16.8226 32.8324 16.8226 32.8324 16.7188 32.8324C16.6149 32.8324 16.511 32.9364 16.511 32.9364C16.1994 33.1443 15.9917 33.3523 15.6801 33.4562C15.4724 33.5602 15.3685 33.5602 15.1608 33.5602C14.7453 33.5602 14.5376 33.3523 14.5376 32.9364C14.5376 32.5205 14.5376 32.1047 14.5376 31.6888C14.5376 31.2729 14.5376 30.961 14.6415 30.5452C14.6415 30.2333 14.6415 29.9214 14.7453 29.5055C14.7453 29.4015 14.7453 29.1936 14.7453 28.9857V28.8817C14.8492 28.8817 14.8492 28.7777 14.8492 28.7777V28.6738L14.9531 27.5302C14.9531 27.3222 14.9531 27.0103 14.9531 26.8024V26.6984C14.9531 26.3865 15.0569 25.9707 15.0569 25.6588C15.0569 25.2429 15.2647 24.827 15.3685 24.4112C15.5763 23.9953 15.8879 23.6834 16.1994 23.4755C16.4072 23.3715 16.7188 23.1636 16.9265 23.1636C17.0304 23.1636 17.2381 23.0596 17.342 23.1636L17.1342 23.3715ZM23.9894 20.7723C24.1971 20.7723 24.4049 20.8763 24.5087 21.0842C24.6126 21.1882 24.6126 21.3961 24.7165 21.5001C24.7165 21.6041 24.7165 21.708 24.7165 21.708V21.812C24.7165 22.2279 24.4049 22.5398 24.0933 22.7477C23.8855 22.9556 23.6778 23.0596 23.4701 23.2675C23.1585 23.4755 22.8469 23.8913 22.6392 24.2032C22.5353 24.3072 22.5353 24.4112 22.5353 24.5151C22.5353 24.6191 22.4314 24.6191 22.4314 24.7231C22.4314 24.827 22.4314 25.035 22.3276 25.1389C22.3276 25.2429 22.3276 25.3469 22.3276 25.4508C22.2237 25.5548 22.2237 25.6588 22.2237 25.7627C22.2237 25.9707 22.1198 26.1786 22.2237 26.3865C22.2237 26.4905 22.2237 26.6984 22.2237 26.8024C22.2237 27.3222 22.2237 27.8421 22.1198 28.3619C22.1198 28.7778 22.1198 29.0896 22.016 29.4015C21.9121 29.7134 21.8082 30.0253 21.6005 30.2333C21.185 30.6491 20.7696 30.8571 20.3541 30.8571C20.1464 30.8571 19.9386 30.7531 19.7309 30.5452C19.627 30.4412 19.627 30.2333 19.627 30.0253C19.627 29.8174 19.627 29.6095 19.627 29.2976C19.627 29.0896 19.7309 28.8817 19.627 28.6738C19.627 28.4659 19.7309 28.154 19.627 27.946C19.627 27.8421 19.627 27.6341 19.627 27.5302C19.627 27.4262 19.627 27.4262 19.627 27.3222C19.627 27.1143 19.627 27.0103 19.627 26.8024C19.627 26.5945 19.627 26.3865 19.7309 26.1786C19.7309 26.0746 19.7309 25.9707 19.7309 25.8667C19.7309 25.6588 19.7309 25.4508 19.8348 25.2429C19.8348 24.931 19.8348 24.6191 19.9386 24.2032C19.9386 23.8913 19.9386 23.4755 19.9386 23.1636C19.9386 22.7477 20.0425 22.4358 20.2502 22.1239C20.458 21.812 20.6657 21.6041 20.9773 21.3961C21.2889 21.1882 21.6005 21.1882 22.016 21.0842C22.2237 21.0842 22.4314 20.9803 22.6392 20.8763C22.743 20.7723 22.8469 20.7723 23.0546 20.7723C23.1585 20.6684 23.2623 20.6684 23.4701 20.5644C23.5739 20.8763 23.7817 20.7723 23.9894 20.7723ZM37.9075 13.9106C38.1152 13.9106 38.2191 14.0145 38.2191 14.2225C38.2191 14.3264 38.3229 14.4304 38.3229 14.5344C38.4268 14.6383 38.3229 14.7423 38.3229 14.8463C38.3229 14.9502 38.3229 15.0542 38.2191 15.1582C38.1152 15.2621 38.2191 15.3661 38.2191 15.4701C38.2191 15.678 38.2191 15.782 38.1152 15.9899L38.2191 16.0939C38.2191 16.1978 38.1152 16.3018 38.1152 16.5097C38.1152 16.7177 38.1152 16.9256 38.1152 17.1335C38.1152 17.2375 38.1152 17.3415 38.1152 17.3415C38.1152 17.4454 38.1152 17.4454 38.1152 17.5494C38.1152 17.7573 38.1152 17.9653 38.1152 18.1732C38.1152 18.2772 38.1152 18.3811 38.1152 18.4851C38.1152 18.693 38.1152 18.797 38.0113 18.9009C37.9075 19.0049 38.0113 19.1089 38.0113 19.2128C38.0113 19.3168 38.0113 19.4208 38.1152 19.4208C38.1152 19.4208 38.1152 19.5247 38.2191 19.5247H38.0113C38.0113 19.6287 38.0113 19.6287 38.1152 19.6287C38.1152 19.6287 38.1152 19.7327 38.2191 19.7327H38.0113C38.0113 19.8366 38.0113 19.9406 38.0113 20.0446C38.0113 20.4604 38.0113 20.7723 37.9075 21.1882C37.9075 21.1882 37.9075 21.1882 37.9075 21.2922V21.3961C37.9075 21.5001 37.9075 21.5001 37.9075 21.6041C37.9075 21.708 37.9075 21.708 37.9075 21.812C37.9075 22.0199 37.8036 22.1239 37.5959 22.3318C37.492 22.5398 37.2843 22.7477 37.0765 22.8517C36.8688 22.9556 36.5572 23.0596 36.3495 23.1636C36.1417 23.2675 35.934 23.2675 35.7263 23.2675C35.207 23.2675 34.9992 23.0596 34.9992 22.6437C34.9992 22.3318 34.9992 22.0199 35.1031 21.708C35.1031 21.1882 35.207 20.6684 35.3108 20.1485C35.4147 19.4208 35.4147 18.693 35.5186 18.0692C35.6224 17.4454 35.7263 16.8216 35.7263 16.1978C35.7263 16.0939 35.7263 15.8859 35.7263 15.782C35.7263 15.4701 35.934 15.0542 36.1417 14.7423C36.3495 14.4304 36.6611 14.2225 36.9727 14.0145C37.2843 13.9106 37.5959 13.9106 37.9075 13.9106ZM18.069 17.3415C18.3806 17.3415 18.4845 17.4454 18.4845 17.5494C18.4845 17.6534 18.4845 17.6534 18.5884 17.7573C18.6922 17.9653 18.6922 18.2772 18.5884 18.4851C18.4845 18.5891 18.3806 18.797 18.2768 18.9009C18.069 19.2128 17.7574 19.4208 17.4458 19.5247C17.342 19.6287 17.1342 19.7327 16.9265 19.7327C16.7188 19.8366 16.511 19.7327 16.3033 19.6287C16.0956 19.5247 16.0956 19.3168 16.0956 19.1089C16.0956 18.901 16.0956 18.797 16.1994 18.5891C16.3033 18.4851 16.3033 18.2772 16.4072 18.1732C16.511 18.0692 16.6149 17.9653 16.7188 17.8613C16.9265 17.6534 17.1342 17.5494 17.342 17.3415C17.6536 17.4454 17.8613 17.3415 18.069 17.3415ZM38.2191 9.64795C38.4268 9.54398 38.6345 9.54398 38.8423 9.64795C38.9461 9.64795 38.9461 9.64795 39.05 9.64795C39.1539 9.75191 39.2577 9.95985 39.2577 10.1678C39.2577 10.2717 39.2577 10.3757 39.2577 10.4797C39.1539 10.7916 39.05 10.9995 38.8423 11.2074L38.7384 11.3114C38.5307 11.6233 38.2191 11.8312 37.9075 12.0392C37.6997 12.1431 37.492 12.1431 37.2843 12.0392C37.1804 12.0392 37.0765 11.9352 36.9727 11.8312C36.8688 11.7273 36.8688 11.7273 36.8688 11.6233C36.6611 11.1035 36.8688 10.5836 37.2843 10.1678C37.492 9.95985 37.8036 9.75191 38.2191 9.64795Z" fill="#403F3F"/>
</svg>
