<svg width="50" height="51" viewBox="0 0 50 51" fill="none" xmlns="http://www.w3.org/2000/svg">
<g clip-path="url(#clip0_76_64)">
<path d="M34.1715 20.9131C33.9046 20.7551 33.5844 20.5443 33.4243 20.439C32.5168 20.8078 31.6628 21.5981 30.9155 22.3884C29.2075 24.1797 29.3676 25.1808 27.4994 25.8657C27.019 26.0238 26.4853 26.2345 25.738 26.3926C25.311 25.1281 24.2434 23.8109 23.1225 23.8109C22.3219 23.8109 21.4678 24.2324 20.4003 24.6539C19.1726 25.1808 18.0517 25.813 17.7314 26.0238L18.2118 26.656C18.5855 26.4453 19.5996 25.9711 20.6672 25.4969C21.5746 25.1281 22.3752 24.812 22.9624 24.812C23.8698 24.812 24.4569 25.813 24.7772 26.6033C23.6029 26.8668 21.6813 26.9195 21.0942 26.9195C20.8273 26.9195 20.7206 26.9722 20.6138 27.0248C20.507 27.0775 20.4537 27.2356 20.4003 27.4463L20.3469 27.7098H20.9874C24.2434 27.7098 27.2859 27.1829 29.2075 26.0238C29.4744 26.0765 29.7412 26.1292 30.0615 26.1292C31.1824 26.1292 32.3567 25.5496 33.0506 24.97C33.3175 24.7593 33.3709 24.6012 33.3709 24.3905C33.3709 24.2851 33.3709 24.2324 33.3709 24.1271L33.3175 23.8109C32.3033 24.6012 31.3959 25.2335 30.3284 25.2335C30.1149 25.2335 30.0081 25.2335 29.9014 25.1808C30.9155 23.6002 31.8763 22.1249 34.1715 20.9131Z" fill="#403F3F"/>
<path d="M27.2859 22.8626C26.5386 22.8626 26.6454 21.6508 26.592 20.6497C23.9765 20.9132 22.3752 21.6508 20.6138 22.5991L20.8273 23.3895C22.4286 22.4411 23.9765 21.9142 25.6312 21.7035C25.6312 22.6518 26.0582 23.9163 27.1257 23.9163C28.3 23.9163 29.6878 22.125 31.3425 20.0175L31.7695 19.4379C31.556 19.2799 31.2891 19.1218 31.129 18.9637C29.421 21.1239 27.9798 22.8626 27.2859 22.8626Z" fill="#403F3F"/>
<path d="M21.6281 9.69076C21.3612 9.69076 21.0943 9.63807 20.774 9.58538C20.5072 9.53269 20.2403 9.48001 19.8666 9.48001C19.1727 9.48001 18.4255 9.74344 17.9451 10.2176C17.0377 11.0606 16.9843 12.009 16.9309 12.852C16.8775 13.9584 16.664 14.2218 16.0235 15.0121C15.5431 15.6444 14.8492 16.5401 14.3154 17.4358C14.4756 17.4884 15.0093 17.8046 15.2228 17.9099C15.81 17.0143 16.664 15.9078 17.1978 15.1175C17.6782 14.3799 17.8917 14.0638 17.9451 13.0627C17.9451 12.9047 17.9451 12.7466 17.9451 12.5885C17.9984 12.0617 18.1052 11.5348 18.639 11.0606C19.0126 10.6918 19.5464 10.4811 20.0801 10.4811C20.6139 10.4811 20.8808 10.6391 21.3612 10.6391C21.6814 10.6391 21.895 10.5864 22.1085 10.4811L22.2686 10.4284L21.8949 11.3767L22.8024 11.7456C22.2152 12.1144 20.8808 13.695 20.8808 15.539C20.8808 16.2239 20.9875 16.8562 21.1477 17.3831C21.1477 17.4358 21.2011 17.4884 21.3078 17.4884C21.4146 17.4884 21.4679 17.4358 21.4679 17.3304V17.1196C21.5213 16.5401 21.5213 15.6444 21.7882 14.8541C22.1618 13.4842 23.2294 12.2197 24.2435 11.5875L22.8024 10.9026L23.4429 9.37463L22.749 9.53269C22.322 9.58538 22.0017 9.69076 21.6281 9.69076Z" fill="#403F3F"/>
<path d="M27.2325 3.31567C26.6453 3.31567 26.5386 3.84254 26.5386 4.15867C26.5386 4.4221 26.6453 4.68554 26.9122 4.68554C27.1791 4.68554 27.446 4.52748 27.7129 4.31673C27.9798 4.10598 28.1399 3.94792 28.1399 3.78986C28.1399 3.6318 27.9798 3.52642 27.8196 3.42105C27.6061 3.36836 27.446 3.31567 27.2325 3.31567Z" fill="#403F3F"/>
<path d="M27.4994 14.1165H23.8164L23.3894 14.9068H27.8197L27.4994 14.1165Z" fill="#403F3F"/>
<path d="M18.6922 6.89839C18.9057 6.74033 19.1192 6.58227 19.1192 6.37152C19.1192 6.26615 19.0659 6.16077 18.9591 6.10809C18.799 5.95003 18.5855 5.89734 18.372 5.89734C17.945 5.89734 17.7314 6.31884 17.7314 6.68764C17.7314 6.95108 17.8916 7.10914 18.1585 7.10914C18.3186 7.05645 18.5321 7.00377 18.6922 6.89839Z" fill="#403F3F"/>
<path d="M44.3666 22.5464L44.7936 22.8099C44.847 22.8625 44.9003 22.8625 44.9537 22.8625C45.0605 22.8625 45.1138 22.7572 45.1138 22.7045C45.1138 22.6518 45.1138 22.5991 45.0605 22.5991C43.7794 21.44 42.445 20.0701 41.1639 18.753C40.1498 17.6992 39.1356 16.5928 38.2282 15.4864C38.1748 15.4337 38.1215 15.381 38.0681 15.381C37.9613 15.381 37.908 15.4337 37.908 15.539C37.908 15.6444 38.0147 15.8025 38.2282 16.1713C38.8687 17.2777 39.7228 18.3841 40.6836 19.4379C41.7511 20.5443 43.0321 21.5981 44.3666 22.5464Z" fill="#403F3F"/>
<path d="M37.9079 50.6813H38.9221C39.189 50.6813 39.3491 50.5759 39.5092 50.4179C39.616 50.3125 39.6694 50.1017 39.6694 49.891V38.7213C39.6694 38.5106 39.616 38.3525 39.5092 38.1945C39.4025 38.0364 39.189 37.931 38.9221 37.931H37.9079C37.641 37.931 37.4809 38.0364 37.3208 38.1945C37.214 38.2998 37.1606 38.5106 37.1606 38.7213V49.891C37.1606 50.1017 37.214 50.2598 37.3208 50.4179C37.4809 50.5759 37.641 50.6813 37.9079 50.6813Z" fill="#403F3F"/>
<path d="M20.9341 11.3241C20.774 11.2187 20.6139 11.166 20.4538 11.166C20.0801 11.166 19.92 11.3768 19.8666 11.5875C19.8132 11.6929 19.8132 11.7983 19.8132 11.9036C19.8132 12.2198 19.9734 12.4305 20.1869 12.4305C20.5071 12.4305 21.0943 12.009 21.0943 11.6402C21.0943 11.5348 21.0409 11.3768 20.9341 11.3241Z" fill="#403F3F"/>
<path d="M9.13781 22.1249L9.19119 22.4937C9.19119 22.6518 9.29794 22.7571 9.4047 22.8098C9.56483 22.8625 9.77833 22.9152 10.152 22.9152C11.1128 22.9152 11.86 22.8098 12.287 22.7044C13.3546 24.2851 14.7958 24.8646 16.2369 24.8646C17.4646 24.8646 18.6389 24.4431 19.8132 23.8109L19.5997 22.9679C18.4788 23.6001 17.2511 24.0216 16.2369 24.0216C15.0626 24.0216 14.0485 23.5474 13.1411 22.2303C12.7674 21.7034 12.5006 21.0185 12.1269 20.3862C11.6999 19.6486 11.2729 19.2798 10.4722 19.2798C9.77833 19.2798 9.03106 19.5959 8.33716 19.912L8.39054 20.0701C8.44391 20.3335 8.55067 20.5443 8.81755 20.5443C8.9243 20.5443 9.03106 20.4916 9.08444 20.4916C9.51145 20.3862 9.77833 20.2282 10.2053 20.2282C10.8459 20.2282 11.1661 20.597 11.5931 21.5453L11.7533 21.8615C11.3263 22.0195 10.2587 22.0722 9.45807 22.0722H9.13781V22.1249Z" fill="#403F3F"/>
<path d="M49.7043 46.5717C49.8644 46.4137 49.9178 46.2556 49.9178 45.8868C49.9178 44.7804 49.5441 43.6212 48.7969 42.7256C48.0496 41.8299 46.8753 41.1976 45.2206 41.1976C42.2315 41.1976 40.5234 43.5159 40.5234 45.9395C40.5234 48.5211 42.3383 50.8394 45.2206 50.8394C46.6618 50.8394 48.103 50.3125 48.9036 49.3641C49.2773 48.9426 49.5441 48.3631 49.5441 48.0469C49.5441 47.9416 49.5441 47.8362 49.4374 47.7308C49.384 47.6255 49.2773 47.5728 49.0637 47.5728H47.6759C47.4091 47.5728 47.1956 47.6781 47.0888 47.8889C46.6618 48.4684 46.0746 48.7846 45.2206 48.7846C43.9396 48.7846 43.0855 47.8362 43.0322 46.7298H49.0637C49.384 46.7298 49.5975 46.6771 49.7043 46.5717ZM43.0855 44.9384C43.1923 43.8847 43.9929 43.0944 45.2206 43.0944C46.4483 43.0944 47.2489 43.8847 47.3557 44.9384H43.0855Z" fill="#403F3F"/>
<path d="M42.8719 1.84045C42.3382 2.89419 40.2031 6.21348 39.0288 7.58334L39.6693 8.26827C40.3099 7.58334 40.9504 6.42423 41.6977 5.26511H41.8578C41.8578 5.3178 41.8578 5.37049 41.8578 5.47586C41.8578 6.42423 42.3382 7.16185 43.6192 7.16185C44.3665 7.16185 45.5942 6.79304 46.7151 6.42423C47.6225 6.1081 48.4765 5.79198 48.9035 5.68661V4.68555C48.4231 4.84362 47.409 5.21242 46.3948 5.58123C45.3273 5.95004 44.2597 6.26617 43.6726 6.26617C42.9787 6.26617 42.8186 5.89736 42.8186 5.37049C42.8186 4.31674 43.5125 2.73613 43.9395 1.89314H42.8719V1.84045Z" fill="#403F3F"/>
<path d="M34.3851 5.31775C33.531 4.47476 32.8371 3.52639 32.4101 3.1049C31.5027 2.10384 30.275 0.839355 28.2467 0.839355C26.3251 0.839355 25.0441 2.10384 24.6171 3.15759C24.5103 3.47371 24.4036 3.84252 24.3502 4.00058C24.1367 4.3167 23.2827 5.73925 22.9624 6.31881H24.5637L23.7631 7.79404C24.6705 7.5833 25.311 7.42524 26.165 7.42524C26.9123 7.42524 27.4994 7.5833 27.7129 8.05748C28.14 8.95316 28.14 11.6402 28.9406 13.6423C29.6345 15.539 31.396 17.3831 33.3175 18.8056L33.4243 18.8583C33.531 18.8583 33.5844 18.8056 33.5844 18.7003C33.5844 18.6476 33.5844 18.5949 33.531 18.5949C31.9297 17.0143 30.5953 15.2229 29.848 13.2735C29.1541 11.3768 29.2609 8.74241 28.6737 7.53061C28.2467 6.7403 27.3927 6.52956 26.592 6.52956C25.9515 6.52956 25.3644 6.63493 25.0975 6.7403L25.7914 5.58119H24.6171C24.884 5.15969 25.1509 4.7382 25.2576 4.52745C25.3644 4.3167 25.4177 4.05326 25.5245 3.73714C25.9515 2.63071 26.9657 1.8931 28.2467 1.8931C29.848 1.8931 30.8088 2.94684 31.7696 3.94789C32.1966 4.42207 32.8905 5.42313 33.7445 6.16075C34.3317 6.68762 35.3992 7.26717 37.0539 8.90047C38.0147 9.84884 39.1356 11.1133 40.2565 12.852C44.4199 18.8583 47.1955 24.1797 48.6901 28.342C44.3132 25.3915 40.5234 22.6518 37.4809 19.2271C35.2925 16.8035 33.4243 13.9584 31.7696 10.3757C31.6628 10.1123 31.5561 9.90153 31.4493 9.69078C31.396 9.5854 31.3426 9.5854 31.2892 9.5854C31.1824 9.5854 31.1291 9.63809 31.1291 9.74346C31.1291 9.84884 31.1824 10.0596 31.2892 10.4284C32.1432 14.1692 34.5986 17.4885 37.1607 20.2809C39.7228 23.0206 42.6585 25.3915 45.0604 27.1302L46.9286 32.3989C46.982 32.5043 47.0354 32.6623 47.0354 32.7677C47.0354 32.8731 47.0354 32.9258 46.9286 32.9784C46.8753 33.0311 46.8219 33.0311 46.6617 33.0311H46.0746C45.8077 33.0311 45.7543 32.9784 45.6476 32.9258C45.5408 32.8731 45.4875 32.7677 45.4341 32.6096C45.274 32.1355 44.2598 29.343 44.0997 28.7635C44.0463 28.6581 43.9929 28.6054 43.9395 28.6054C43.8328 28.6054 43.7794 28.6581 43.7794 28.7635C43.7794 28.8162 43.7794 28.9215 43.8328 29.1323C44.0997 30.3968 44.3665 31.8193 44.4733 32.3462C44.5267 32.6096 44.5801 32.8204 44.5801 32.9784C44.5801 33.1365 44.5267 33.2419 44.4199 33.3473L43.8862 34.0322C43.726 34.1902 43.6726 34.1902 43.5659 34.1902C43.4058 34.1902 43.299 34.0849 43.2456 33.8741C42.6051 30.8183 41.5909 27.0775 41.3241 26.0764C41.2707 25.8657 41.2173 25.7076 41.0572 25.7076C40.9504 25.7076 40.897 25.813 40.897 25.9184C40.897 25.9711 40.897 26.0764 40.9504 26.1818C41.1106 27.2356 41.7511 31.1871 42.445 34.7698C42.5517 35.4021 42.8186 35.7182 43.3524 35.7182C43.6193 35.7182 43.8328 35.6128 44.0463 35.4021C44.4199 35.0332 44.5267 34.9806 44.9537 34.5591C45.2739 34.2956 45.4875 34.1376 45.9679 34.1376H47.2489C47.5692 34.1376 47.7293 34.0849 47.836 33.9268C47.9962 33.8214 48.0496 33.6107 48.0496 33.3473C48.0496 33.0838 47.9962 32.8731 47.8894 32.6096C47.5692 31.714 46.5016 28.8162 46.1814 27.9732C47.2489 28.7635 48.8502 29.8172 49.5441 29.8172C49.7576 29.8172 49.8644 29.7119 49.8644 29.3957C49.8644 27.8151 47.1955 21.3873 41.1639 12.4832C38.0147 7.68867 35.1857 6.05537 34.3851 5.31775Z" fill="#403F3F"/>
<path d="M45.9679 9.32202C46.9821 8.90053 48.8503 8.16291 49.9178 7.7941V6.74036C47.7828 7.53066 43.993 9.05859 41.4309 10.4284C41.4843 10.5338 41.9647 11.1134 42.0181 11.2188C43.0856 10.7973 44.0998 10.4811 44.9538 10.4811C46.1815 10.4811 47.1956 10.4811 48.9037 10.1123V9.32202C47.9429 9.48008 46.9287 9.69083 46.2882 9.69083C45.9146 9.69083 45.8078 9.63814 45.8078 9.53277C45.7544 9.48008 45.8078 9.4274 45.9679 9.32202Z" fill="#403F3F"/>
<path d="M21.201 4.79084C20.6138 4.79084 20.2402 4.79084 19.7064 4.52741C19.0125 4.21128 18.6389 4.05322 18.0517 4.05322C17.3044 4.05322 16.6105 4.31666 16.0768 4.84353C15.4362 5.42309 15.2227 6.21339 15.0092 7.05638C14.8491 7.74132 14.6356 8.47893 14.1552 9.11118C13.7282 9.69074 13.4613 9.95417 12.5539 11.0606C11.3262 12.4831 10.6857 13.6423 9.61816 16.1712C9.77829 16.1712 10.0452 16.1186 10.3121 16.1186C10.4722 16.1186 10.5789 16.1186 10.7391 16.1186L10.8458 15.8551C11.433 14.5906 12.2336 12.9046 13.3545 11.5875L13.7282 11.1133C14.9025 9.79611 15.5964 9.0058 16.0768 7.16176C16.2369 6.52951 16.3437 5.94996 16.824 5.52846C17.1977 5.15965 17.7315 5.00159 18.2118 5.00159C18.6389 5.00159 18.9591 5.10696 19.4395 5.31771C19.8132 5.52846 19.9733 5.58115 20.4003 5.58115C20.5604 5.58115 20.6672 5.58115 20.7739 5.58115L20.1868 6.37145L20.9874 6.95101C19.9733 7.26713 19.4395 8.2155 19.226 8.68968C19.1726 8.79506 19.1726 8.84774 19.1726 8.90043C19.1726 8.95312 19.226 9.05849 19.3328 9.05849C19.4395 9.05849 19.5463 8.95312 19.653 8.79506C20.1334 8.2155 20.5604 7.794 22.3752 7.21445L21.0942 6.26608L22.055 4.84353H21.201V4.79084Z" fill="#403F3F"/>
<path d="M4.97437 7.89942C2.83929 7.89942 1.93189 8.90047 1.93189 9.5854C1.29136 9.84884 0.917725 10.5338 0.917725 11.166C0.917725 12.4305 1.87851 13.3262 3.10618 13.3262C3.53319 13.3262 3.96021 13.1681 4.22709 12.9574C4.4406 13.0101 4.70748 13.0627 5.02775 13.0627C5.61489 13.0627 6.30879 12.852 6.73581 12.1671C6.78918 12.1671 6.84256 12.1671 6.94931 12.1671C7.69659 12.1671 8.39049 11.6929 8.71075 11.008C8.81751 10.8499 8.81751 10.7445 8.81751 10.6391C8.81751 10.5338 8.76413 10.4811 8.65738 10.4811C8.55062 10.4811 8.49724 10.5865 8.28374 10.7972C7.80334 11.2187 7.05607 11.3768 6.30879 11.3768C5.93515 11.9036 5.45476 12.2198 4.97437 12.2198C4.60073 12.2198 4.28047 12.1144 3.96021 11.9036C3.69332 12.1671 3.37306 12.2724 3.10618 12.2724C2.41228 12.2724 1.93189 11.7983 1.93189 11.1133C1.93189 10.6391 2.25215 10.2176 2.67916 10.0596C2.73254 9.21659 3.69332 8.63704 4.81424 8.63704C4.97437 8.63704 5.08112 8.63704 5.24125 8.63704C5.40138 8.3736 5.8284 8.05748 6.41555 8.00479C6.5223 8.00479 6.62905 8.00479 6.68243 7.95211C6.73581 7.89942 6.78918 7.84673 6.78918 7.79404C6.78918 7.74136 6.78918 7.68867 6.68243 7.63598C6.62905 7.5833 6.5223 7.5833 6.41555 7.5833C5.88178 7.47792 5.24125 7.1618 4.86762 6.31881C3.58657 6.31881 2.62579 5.26507 2.62579 4.10595V4.05326C2.25215 3.8952 1.93189 3.47371 1.93189 2.99952C1.93189 2.36728 2.46565 1.84041 3.10618 1.84041C3.47982 1.84041 3.85345 2.05116 4.06696 2.31459C4.22709 2.26191 4.4406 2.26191 4.65411 2.26191C5.61489 2.26191 6.68243 2.84146 6.84256 4.05326C8.07023 4.15864 8.39049 5.21238 8.44387 5.63388C8.49724 5.84462 8.49724 6.05537 8.65738 6.05537C8.81751 6.05537 8.87088 5.89731 8.92426 5.63388C9.03101 5.21238 9.19114 4.84357 9.51141 4.58014C9.51141 3.47371 10.3654 2.52534 11.5397 2.52534C11.6999 2.15653 12.1269 1.84041 12.6073 1.84041C13.2478 1.84041 13.7816 2.31459 13.7816 2.99952C13.7816 3.36833 13.6214 3.73714 13.3012 3.8952C13.3545 4.10595 13.4079 4.3167 13.4079 4.47476C13.4079 5.21238 12.9809 5.68656 12.1803 5.95C12.0735 6.37149 11.9134 6.79299 11.5931 7.05643C11.0593 7.53061 10.5256 7.53061 10.5256 7.74136C10.5256 7.84673 10.5789 7.89942 10.7925 7.89942C11.7532 7.89942 12.714 7.37255 12.8208 6.47687C13.7282 6.16075 14.3153 5.26507 14.3153 4.52745C14.3153 4.3167 14.3153 4.15864 14.2086 4.00058C14.4755 3.73714 14.7423 3.36833 14.7423 2.73609C14.7423 2.20922 14.5288 1.68235 14.1018 1.26085C13.7816 1.0501 13.2478 0.839355 12.6606 0.839355C11.8066 0.839355 11.2195 1.31354 10.8992 1.73504C9.93842 1.73504 8.76413 2.78878 8.76413 4.26401H8.65738C8.55062 3.73714 8.01685 3.42102 7.58984 3.36833C7.16282 2.31459 6.36217 1.36623 5.02775 1.36623C4.86762 1.36623 4.70748 1.36623 4.49398 1.41891C4.12034 1.0501 3.63995 0.839355 3.0528 0.839355C1.87851 0.839355 0.917725 1.78772 0.917725 2.94684C0.917725 3.68446 1.23799 4.15864 1.87851 4.63282V4.79088C1.87851 5.73925 2.89267 7.21449 4.4406 7.21449C4.4406 7.47792 4.76086 7.79404 5.08112 7.84673V7.95211H4.97437V7.89942Z" fill="#403F3F"/>
<path d="M26.592 48.8899C26.165 48.8899 25.738 48.8373 25.4177 48.6265C25.1508 48.5211 24.9907 48.3631 24.8306 48.0996C24.7238 47.8889 24.6704 47.7835 24.4569 47.6255C24.3502 47.5728 24.1901 47.5728 23.9766 47.5728H22.909C22.6955 47.5728 22.5888 47.6255 22.482 47.7308C22.4286 47.8362 22.3752 47.9416 22.3752 48.0996C22.3752 48.4158 22.482 48.8899 22.8023 49.2588C23.4428 50.1544 24.8306 50.8394 26.592 50.8394C28.3001 50.8394 30.702 50.1544 30.702 47.8362C30.702 47.2566 30.5419 46.7298 30.2216 46.3083C29.7946 45.7814 29.2609 45.4126 28.2467 45.2018L26.2718 44.7277C25.4711 44.5169 25.0975 44.3589 25.0975 43.8847C25.0975 43.4105 25.5245 43.0417 26.5386 43.0417C27.1258 43.0417 27.6596 43.1471 28.0332 43.5159C28.3001 43.832 28.2467 43.99 28.5136 44.0954C28.6737 44.1481 28.8338 44.1481 29.0474 44.1481H30.0081C30.1683 44.1481 30.275 44.1481 30.3818 44.0427C30.4352 43.99 30.4885 43.832 30.4885 43.6739C30.4885 43.2524 30.2216 42.6729 29.6879 42.1987C28.994 41.6191 27.9264 41.1976 26.592 41.1976C24.2434 41.1976 22.6955 42.3041 22.6955 44.0954C22.6955 44.7277 22.909 45.2545 23.2827 45.6233C23.7097 46.0975 24.3502 46.4137 25.2576 46.6244L27.2325 47.0986C27.7663 47.2566 28.2467 47.4147 28.2467 47.8889C28.1933 48.6265 27.3927 48.8899 26.592 48.8899Z" fill="#403F3F"/>
<path d="M8.49731 8.05753C8.97771 8.68977 9.72498 10.007 10.4723 11.6929C10.579 11.4822 11.006 10.9553 11.1662 10.7973C10.5256 9.48008 9.40472 8.21559 8.92433 7.68872L8.49731 8.05753Z" fill="#403F3F"/>
<path d="M20.8274 19.596C21.5747 19.2272 22.749 19.0691 23.3895 19.0691C23.9233 19.0691 24.5104 19.1218 24.9908 19.1745C25.5779 19.2272 26.2719 19.3326 26.9657 19.3326C28.5671 19.3326 30.1684 18.4896 30.4352 18.3315C30.2217 18.1735 30.0082 17.91 29.8481 17.752C29.3143 17.9627 28.14 18.3842 26.9657 18.3842C26.3786 18.3842 25.8982 18.3315 25.3644 18.2788C24.6705 18.1734 24.03 18.1208 23.4963 18.1208C22.5888 18.1208 21.4679 18.2261 20.4004 18.9638L20.8274 19.596Z" fill="#403F3F"/>
<path d="M19.2794 18.9111L18.799 18.2788C16.8774 19.0164 14.689 20.1755 14.689 21.3873C14.689 22.0723 15.2227 22.5991 16.397 22.5991C18.1051 22.5991 19.9199 21.7562 21.4145 20.9658L21.2009 20.7551C21.0942 20.597 20.9874 20.5444 20.8273 20.5444C20.7206 20.5444 20.6138 20.597 20.507 20.6497C19.2794 21.2293 17.8916 21.8615 16.6105 21.8615C15.8633 21.8615 15.7031 21.6508 15.7031 21.3347C15.7031 20.3863 18.1051 19.3852 19.2794 18.9111Z" fill="#403F3F"/>
<path d="M35.9331 43.2524C36.0932 43.2524 36.2534 43.1997 36.3601 43.0944C36.4669 42.989 36.5203 42.8309 36.5203 42.6729V42.0933C36.5203 41.8826 36.4669 41.7772 36.3601 41.6718C36.2534 41.5664 36.0932 41.5137 35.9331 41.5137H34.3852V38.7213C34.3852 38.5106 34.3318 38.3525 34.2251 38.1945C34.1183 38.0364 33.9048 37.931 33.6379 37.931H32.6771C32.4102 37.931 32.2501 38.0364 32.09 38.1945C31.9832 38.2998 31.9298 38.5106 31.9298 38.7213V41.5137H31.4495C31.2893 41.5137 31.1292 41.5664 31.0224 41.6718C30.9157 41.7772 30.8623 41.9352 30.8623 42.0933V42.6729C30.8623 42.8836 30.9157 43.0417 31.0224 43.0944C31.1292 43.1997 31.2893 43.2524 31.4495 43.2524H31.8765V47.5201C31.8765 48.6265 32.1967 49.3114 32.7305 49.8383C33.2643 50.3652 33.9048 50.6813 35.0791 50.6813H35.8264C35.9865 50.6813 36.1466 50.6286 36.2534 50.5232C36.3601 50.4179 36.4135 50.2598 36.4135 50.1017V49.3641C36.4135 49.1534 36.3601 49.048 36.2534 48.9426C36.1466 48.8372 36.0399 48.7846 35.8797 48.7846H35.773C35.2926 48.7846 34.9723 48.6792 34.7588 48.4684C34.4919 48.205 34.3852 47.8889 34.3852 47.362V43.2524H35.9331Z" fill="#403F3F"/>
<path d="M49.0638 39.8806C49.224 39.8806 49.3841 39.8279 49.4909 39.7225C49.5976 39.6171 49.651 39.4591 49.651 39.301V38.5107C49.651 38.1946 49.5976 38.0365 49.4909 37.9311C49.3841 37.8258 49.224 37.7731 49.0638 37.7731C48.9037 37.7731 48.797 37.7731 48.5301 37.8258L41.6445 38.5107C41.4309 38.5107 41.3776 38.5634 41.2708 38.6688C41.2174 38.7741 41.1641 38.8795 41.1641 39.0376V39.4591C41.1641 39.6171 41.2174 39.7225 41.2708 39.7752C41.3242 39.8806 41.4843 39.8806 41.5911 39.8806H49.0638Z" fill="#403F3F"/>
<path d="M36.4136 22.0195C35.1325 24.7066 33.1576 26.656 31.1293 27.8151C30.1685 28.342 29.3144 28.7108 27.4462 28.7108H23.3896C21.9484 28.7108 21.041 28.9215 20.3471 29.0796C19.5998 29.2903 19.1194 29.4484 18.3188 29.4484C17.1979 29.4484 16.1303 28.8688 15.5966 28.342L16.5574 27.6044L16.077 26.9721C15.8101 27.1829 12.4473 29.6592 11.7001 30.186H11.6467C11.6467 30.028 11.6467 29.8699 11.6467 29.7118C11.6467 27.8151 10.7393 27.3936 9.40485 26.8667L8.49744 27.3936C10.3123 27.9732 10.7927 28.5 10.7927 29.8172C10.7927 30.871 10.419 31.2924 9.83187 31.6613C9.24472 31.9774 8.55082 32.1354 7.9103 32.1354C7.64341 32.1354 7.53666 32.1881 7.42991 32.2935C7.32315 32.3989 7.26978 32.5569 7.26978 32.7677V33.0838H7.48328C8.65758 33.0838 9.72511 32.9257 10.8994 31.9774L14.7425 29.0269C15.2763 29.6592 16.6641 30.5021 18.2654 30.5021C19.1728 30.5021 19.76 30.2914 20.614 30.0806C21.2545 29.9226 21.895 29.7645 23.3362 29.7645H27.3929C29.4746 29.7645 30.4887 29.343 31.5563 28.7108C33.9582 27.3936 35.9866 25.1281 37.1608 22.5464C36.894 22.3357 36.6271 22.1776 36.4136 22.0195Z" fill="#403F3F"/>
<path d="M0.971185 30.3441H1.29145C1.93197 30.3441 1.98535 29.9753 1.98535 29.6065C1.98535 29.343 1.98535 29.0796 1.98535 28.7635C1.98535 28.0785 2.03872 27.4463 3.15964 26.9194C3.64003 26.7087 5.93524 25.813 7.6433 25.0754C8.12369 24.8646 8.60408 24.7066 9.13785 24.7066C9.725 24.7066 10.3655 24.97 11.2195 25.4442C11.9134 25.8657 12.6607 26.3926 13.2479 27.0248L13.9951 26.4452C13.3546 25.7076 12.5006 25.0754 11.5932 24.5485C10.7392 24.0216 9.9385 23.7582 9.29798 23.7582C9.0311 23.7582 8.76421 23.8109 8.60408 23.8636C8.39057 23.9163 8.17707 23.969 7.85681 23.969C7.53654 23.969 7.26966 23.9163 6.89602 23.4421C6.73589 23.284 5.82848 22.2303 5.61498 21.9142C5.50822 21.7561 5.34809 21.4927 5.34809 21.1239C5.34809 20.9658 5.34809 20.8077 5.45484 20.6497C6.2555 21.2819 7.26966 21.6507 8.44395 21.8088L8.28382 21.0185C6.52238 20.597 4.65419 19.0691 4.65419 18.1207C4.65419 17.9099 4.70757 17.7519 4.76094 17.5938C5.45484 18.2261 7.00278 18.8583 7.85681 18.8583C8.3372 18.8583 8.71084 18.7003 9.08447 18.5422C9.40474 18.3841 9.77837 18.2788 10.2588 18.2788C11.3797 18.2788 12.7141 18.8056 13.9418 19.3325C13.9951 19.3325 14.1019 19.3852 14.1553 19.3852C14.3688 19.3852 14.4755 19.2798 14.5823 19.1218L14.7424 18.8583C13.408 18.1207 11.3263 17.2777 10.2054 17.2777C9.725 17.2777 9.35136 17.3831 8.97772 17.5411C8.60408 17.6992 8.23044 17.8573 7.91018 17.8573C7.05615 17.8573 4.81432 17.0143 4.81432 16.1713C4.81432 15.2229 8.39057 14.8014 8.76421 14.8014L9.13785 14.0111C6.57576 14.0111 3.4799 14.9068 3.4799 16.1186C3.4799 16.4347 3.69341 16.6455 3.69341 16.9616C3.69341 17.3831 3.4799 17.6992 3.4799 18.1734C3.4799 18.4895 3.69341 18.911 3.90691 19.2271C4.1738 19.5959 4.44068 19.8594 4.44068 20.1228C4.44068 20.3336 4.28055 20.6497 4.28055 21.1765C4.28055 22.3357 4.92108 23.0206 6.2555 24.3905L6.52238 24.6539C5.45484 25.0754 3.42652 25.9184 2.99951 26.1291C1.3982 26.8141 0.971185 27.6044 0.971185 28.8689C0.917808 29.2904 0.917808 29.8699 0.971185 30.3441Z" fill="#403F3F"/>
<path d="M12.1268 3.78977C12.1268 3.73709 12.0734 3.63171 11.9667 3.63171C11.9133 3.63171 11.8599 3.6844 11.7532 3.73709C11.4329 4.00052 11.1127 4.31665 10.8458 4.63277C10.4188 5.10695 10.0451 5.79188 9.72485 6.47681L10.2052 6.74025C10.5255 6.31875 11.593 4.73814 12.1268 3.89515C12.1268 3.89515 12.1268 3.84246 12.1268 3.78977Z" fill="#403F3F"/>
<path d="M0.917725 49.7856C0.917725 50.049 0.971102 50.2071 1.13123 50.3652C1.29136 50.5232 1.50487 50.6286 1.82513 50.6286H2.62579C2.94605 50.6286 3.15955 50.5232 3.31969 50.3652C3.42644 50.2071 3.53319 50.049 3.53319 49.7856V41.8826H3.58657C3.58657 41.8826 8.07023 49.6802 8.23036 49.9437C8.49725 50.3652 8.92426 50.6813 9.51141 50.6813H10.8992C11.2195 50.6813 11.433 50.5759 11.5931 50.4179C11.6999 50.2598 11.8066 50.1017 11.8066 49.8383V39.8804H29.7413C29.9014 39.8804 30.0615 39.8278 30.1683 39.7224C30.275 39.617 30.3284 39.459 30.3284 39.3009V38.5633C30.3284 38.3525 30.275 38.2472 30.1683 38.1418C30.0615 38.0364 29.9014 37.9837 29.7413 37.9837H10.0452C9.72491 37.9837 9.51141 38.0891 9.35128 38.2472C9.24452 38.4052 9.13777 38.5633 9.13777 38.8267V46.5717H9.08439C9.08439 46.5717 4.81424 39.0375 4.60073 38.6686C4.4406 38.4052 4.28047 38.2472 4.06696 38.1418C3.85345 38.0364 3.63995 37.931 3.21293 37.931H1.77176C1.45149 37.931 1.23799 38.0364 1.07786 38.1945C0.971102 38.3525 0.917725 38.5106 0.917725 38.8267V49.7856Z" fill="#403F3F"/>
<path d="M21.6813 46.5716C21.8414 46.4135 21.8948 46.2555 21.8948 45.8867C21.8948 44.7802 21.5212 43.6211 20.7739 42.7254C20.0266 41.8298 18.8523 41.1975 17.1977 41.1975C14.2085 41.1975 12.5005 43.5157 12.5005 45.9393C12.5005 48.521 14.3153 50.8392 17.1977 50.8392C18.6388 50.8392 20.08 50.3124 20.8807 49.364C21.2543 48.9425 21.5212 48.3629 21.5212 48.0468C21.5212 47.9415 21.5212 47.8361 21.4144 47.7307C21.3611 47.6253 21.2543 47.5726 21.0408 47.5726H19.653C19.3861 47.5726 19.1726 47.678 19.0658 47.8888C18.6388 48.4683 18.0517 48.7844 17.1977 48.7844C15.9166 48.7844 15.0626 47.8361 15.0092 46.7296H21.0408C21.3611 46.7296 21.5212 46.677 21.6813 46.5716ZM15.0626 44.9383C15.1693 43.8845 15.97 43.0942 17.1977 43.0942C18.4253 43.0942 19.226 43.8845 19.3327 44.9383H15.0626Z" fill="#403F3F"/>
<path d="M4.01367 10.6918C4.01367 10.7445 4.06705 10.8499 4.12043 10.8499C4.1738 10.8499 4.22718 10.8499 4.33393 10.7972L7.48317 9.74342L7.32304 9.21655C6.04199 9.4273 5.08121 9.74342 4.01367 10.5864C4.01367 10.5864 4.01367 10.6391 4.01367 10.6918Z" fill="#403F3F"/>
<path d="M5.93515 4.58008C5.45476 4.21127 4.86761 3.94784 4.22709 3.6844L4.12034 3.63171C4.01358 3.63171 3.96021 3.6844 3.96021 3.73709C3.96021 3.78977 3.96021 3.84246 4.06696 3.89515C4.81424 4.52739 6.25541 5.7392 6.7358 6.108L7.10944 5.68651C6.7358 5.26501 6.30879 4.8962 5.93515 4.58008Z" fill="#403F3F"/>
</g>
<defs>
<clipPath id="clip0_76_64">
<rect width="49" height="50" fill="white" transform="translate(0.917725 0.839355)"/>
</clipPath>
</defs>
</svg>
